<?xml version="1.0" encoding="UTF-8" standalone="no"?>
<!DOCTYPE svg PUBLIC "-//W3C//DTD SVG 1.1//EN"
"http://www.w3.org/Graphics/SVG/1.1/DTD/svg11.dtd">
<svg viewBox="0 0 935 1210" version="1.1" xmlns="http://www.w3.org/2000/svg" xmlns:xlink="http://www.w3.org/1999/xlink">
<defs>
<clipPath id="c0_47"><path d="M208.5,283.9V84.5H373.9V283.9Z"/></clipPath>
<clipPath id="c1_47"><path d="M54.8,145.8V113.7H255.4v32.1Z"/></clipPath>
<clipPath id="c2_47"><path d="M575.1,135.7V100.4H821.9v35.3Z"/></clipPath>
<clipPath id="c3_47"><path d="M526.4,266.7V182H866.7v84.7Z"/></clipPath>
<clipPath id="c4_47"><path d="M143.8,557.3V442H791.6V557.3Z"/></clipPath>
<clipPath id="c5_47"><path d="M50.1,853V777.4H560V853Z"/></clipPath>
<clipPath id="c6_47"><path d="M546.2,1083.3V777.4H857.8v305.9Z"/></clipPath>
</defs>
<image clip-path="url(#c0_47)" preserveAspectRatio="none" x="209" y="84" width="165" height="200" xlink:href="img/1.jpg"/>
<image clip-path="url(#c1_47)" preserveAspectRatio="none" x="55" y="114" width="200" height="32" xlink:href="img/2.png"/>
<image clip-path="url(#c2_47)" preserveAspectRatio="none" x="575" y="100" width="247" height="36" xlink:href="img/3.png"/>
<image clip-path="url(#c3_47)" preserveAspectRatio="none" x="526" y="182" width="341" height="85" xlink:href="img/4.png"/>
<image clip-path="url(#c4_47)" preserveAspectRatio="none" x="144" y="442" width="648" height="115" xlink:href="img/5.png"/>
<image clip-path="url(#c5_47)" preserveAspectRatio="none" x="50" y="777" width="510" height="76" xlink:href="img/6.png"/>
<image clip-path="url(#c6_47)" preserveAspectRatio="none" x="546" y="777" width="312" height="306" xlink:href="img/7.png"/>
</svg>