<?xml version="1.0" encoding="UTF-8" standalone="no"?>
<!DOCTYPE svg PUBLIC "-//W3C//DTD SVG 1.1//EN"
"http://www.w3.org/Graphics/SVG/1.1/DTD/svg11.dtd">
<svg viewBox="0 0 935 1210" version="1.1" xmlns="http://www.w3.org/2000/svg" xmlns:xlink="http://www.w3.org/1999/xlink">
<defs>
<clipPath id="c0_23"><path d="M55,879.4V837.6H239.7v41.8Z"/></clipPath>
<clipPath id="c1_23"><path d="M55.8,113.8V66.5H216.3v47.3Z"/></clipPath>
<clipPath id="c2_23"><path d="M181.6,249.2V95.4H299.3V249.2Z"/></clipPath>
<clipPath id="c3_23"><path d="M52.5,569.3V523.4H252.6v45.9Z"/></clipPath>
<clipPath id="c4_23"><path d="M52.5,505.2V463.7H198.8v41.5Z"/></clipPath>
<clipPath id="c5_23"><path d="M55,374.1V345.4H236.5v28.7Z"/></clipPath>
<clipPath id="c6_23"><path d="M55,405.1V376.4H300.3v28.7Z"/></clipPath>
<clipPath id="c7_23"><path d="M55,436V407.3H371.8V436Z"/></clipPath>
<clipPath id="c8_23"><path d="M55,275.7V247.1H168.3v28.6Z"/></clipPath>
<clipPath id="c9_23"><path d="M55,306.5V277.9H232.1v28.6Z"/></clipPath>
<clipPath id="ca_23"><path d="M55,337.3V308.8H303.6v28.5Z"/></clipPath>
<clipPath id="cb_23"><path d="M267.4,708.2V636.7h209v71.5Z"/></clipPath>
<clipPath id="cc_23"><path d="M267.4,623.6V595H535.8v28.6Z"/></clipPath>
<clipPath id="cd_23"><path d="M267.4,794V722.5H529.2V794Z"/></clipPath>
<clipPath id="ce_23"><path d="M535.7,788.4V664.2H683.1V788.4Z"/></clipPath>
<clipPath id="cf_23"><path d="M480.7,705.9V636.7h95.7v69.2Z"/></clipPath>
<clipPath id="cg_23"><path d="M246.7,929.7V887.9H446.8v41.8Z"/></clipPath>
<clipPath id="ch_23"><path d="M252.7,1077.5v-46.1H500.2v46.1Z"/></clipPath>
<style type="text/css"><![CDATA[
.g0_23{
fill: #FF0000;
}
.g1_23{
fill: none;
stroke: #F07C03;
stroke-width: 1.145;
stroke-linecap: butt;
stroke-linejoin: round;
}
]]></style>
</defs>
<image clip-path="url(#c0_23)" preserveAspectRatio="none" x="55" y="838" width="185" height="41" xlink:href="img/1.png"/>
<image clip-path="url(#c1_23)" preserveAspectRatio="none" x="56" y="67" width="160" height="47" xlink:href="img/2.png"/>
<image clip-path="url(#c2_23)" preserveAspectRatio="none" x="182" y="95" width="117" height="154" xlink:href="img/3.png"/>
<path fill-rule="evenodd" d="M839.8,87.7l5.5,-5.4h8.8l5.5,5.4v7.8l-5.5,5.4h-8.8l-5.5,-5.4Z" class="g0_23"/>
<path d="M839.8,87.7l5.5,-5.4h8.8l5.5,5.4v7.7l-5.5,5.5h-8.8l-5.5,-5.5Z" class="g1_23"/>
<image clip-path="url(#c3_23)" preserveAspectRatio="none" x="52" y="523" width="201" height="46" xlink:href="img/4.png"/>
<image clip-path="url(#c4_23)" preserveAspectRatio="none" x="52" y="464" width="147" height="41" xlink:href="img/5.png"/>
<image clip-path="url(#c5_23)" preserveAspectRatio="none" x="55" y="345" width="182" height="29" xlink:href="img/6.png"/>
<image clip-path="url(#c6_23)" preserveAspectRatio="none" x="55" y="376" width="245" height="29" xlink:href="img/7.png"/>
<image clip-path="url(#c7_23)" preserveAspectRatio="none" x="55" y="407" width="317" height="29" xlink:href="img/8.png"/>
<image clip-path="url(#c8_23)" preserveAspectRatio="none" x="55" y="247" width="113" height="29" xlink:href="img/9.png"/>
<image clip-path="url(#c9_23)" preserveAspectRatio="none" x="55" y="278" width="177" height="29" xlink:href="img/10.png"/>
<image clip-path="url(#ca_23)" preserveAspectRatio="none" x="55" y="309" width="249" height="28" xlink:href="img/11.png"/>
<image clip-path="url(#cb_23)" preserveAspectRatio="none" x="267" y="637" width="209" height="71" xlink:href="img/12.png"/>
<image clip-path="url(#cc_23)" preserveAspectRatio="none" x="267" y="595" width="269" height="29" xlink:href="img/13.png"/>
<image clip-path="url(#cd_23)" preserveAspectRatio="none" x="267" y="722" width="262" height="72" xlink:href="img/14.png"/>
<image clip-path="url(#ce_23)" preserveAspectRatio="none" x="536" y="664" width="147" height="124" xlink:href="img/15.jpg"/>
<image clip-path="url(#cf_23)" preserveAspectRatio="none" x="481" y="637" width="95" height="69" xlink:href="img/16.jpg"/>
<image clip-path="url(#cg_23)" preserveAspectRatio="none" x="247" y="888" width="200" height="42" xlink:href="img/17.png"/>
<image clip-path="url(#ch_23)" preserveAspectRatio="none" x="253" y="1031" width="247" height="47" xlink:href="img/18.png"/>
</svg>