<?xml version="1.0" encoding="UTF-8" standalone="no"?>
<!DOCTYPE svg PUBLIC "-//W3C//DTD SVG 1.1//EN"
"http://www.w3.org/Graphics/SVG/1.1/DTD/svg11.dtd">
<svg viewBox="0 0 935 1210" version="1.1" xmlns="http://www.w3.org/2000/svg" xmlns:xlink="http://www.w3.org/1999/xlink">
<defs>
<clipPath id="c0_23"><path d="M654.9,394.9V373.8H708v21.1Z"/></clipPath>
<clipPath id="c1_23"><path d="M593.8,394.9V373.8h53.1v21.1Z"/></clipPath>
<clipPath id="c2_23"><path d="M527.8,395.4v-22h57.7v22Z"/></clipPath>
<clipPath id="c3_23"><path d="M434.9,400.9v-33h84.3v33Z"/></clipPath>
<clipPath id="c4_23"><path d="M317.5,397.7V371.1h110v26.6Z"/></clipPath>
<clipPath id="c5_23"><path d="M170.9,402.3V366.5H310.2v35.8Z"/></clipPath>
<clipPath id="c6_23"><path d="M48.7,402.3V366.5H163.2v35.8Z"/></clipPath>
<clipPath id="c7_23"><path d="M300.2,488.2V460.7H533.9v27.5Z"/></clipPath>
<clipPath id="c8_23"><path d="M54.2,491.6V455.8H287.9v35.8Z"/></clipPath>
<clipPath id="c9_23"><path d="M462.5,568.9V540.2H641.3v28.7Z"/></clipPath>
<clipPath id="ca_23"><path d="M260.2,573.5V535.6H440.1v37.9Z"/></clipPath>
<clipPath id="cb_23"><path d="M55,568.4V540.8H237.7v27.6Z"/></clipPath>
<clipPath id="cc_23"><path d="M55,306V224.7H283.9V306Z"/></clipPath>
<clipPath id="cd_23"><path d="M55,175.4v-31H250.7v31Z"/></clipPath>
<clipPath id="ce_23"><path d="M271,175.4v-31H532v31Z"/></clipPath>
<clipPath id="cf_23"><path d="M552.3,175.3V144.5H753.7v30.8Z"/></clipPath>
<clipPath id="cg_23"><path d="M349.1,133.2V107.3H537v25.9Z"/></clipPath>
<clipPath id="ch_23"><path d="M168.8,135.7V104.8H338.4v30.9Z"/></clipPath>
<clipPath id="ci_23"><path d="M57.3,135.7V104.8H158.1v30.9Z"/></clipPath>
<clipPath id="cj_23"><path d="M547.7,133V107.5H706.6V133Z"/></clipPath>
<clipPath id="ck_23"><path d="M717.3,132.8V107.7H879.8v25.1Z"/></clipPath>
<clipPath id="cl_23"><path d="M55.9,681.2V581.4H458.2v99.8Z"/></clipPath>
<clipPath id="cm_23"><path d="M55,748.7V722.3H247.6v26.4Z"/></clipPath>
<clipPath id="cn_23"><path d="M258.8,748.7V722.3h260v26.4Z"/></clipPath>
<clipPath id="co_23"><path d="M55,871.5V838.3H262.2v33.2Z"/></clipPath>
<clipPath id="cp_23"><path d="M274.3,869V840.7H407.2V869Z"/></clipPath>
<clipPath id="cq_23"><path d="M419.3,868V841.7H596.2V868Z"/></clipPath>
<clipPath id="cr_23"><path d="M56.4,827.4V793.2H309.6v34.2Z"/></clipPath>
<clipPath id="cs_23"><path d="M320.3,823.5V797.1H512v26.4Z"/></clipPath>
<clipPath id="ct_23"><path d="M55,784.7V760.1H374v24.6Z"/></clipPath>
<clipPath id="cu_23"><path d="M387.4,785.6V760.9H644.1v24.7Z"/></clipPath>
<clipPath id="cv_23"><path d="M481.6,908.6V888.5h77.9v20.1Z"/></clipPath>
<clipPath id="cw_23"><path d="M248.2,916V883.1H455.4V916Z"/></clipPath>
<clipPath id="cx_23"><path d="M56,914.1v-33H221v33Z"/></clipPath>
<clipPath id="cy_23"><path d="M355.3,713V683.7h88.9V713Z"/></clipPath>
<clipPath id="cz_23"><path d="M60.9,711.2V685.5H188.3v25.7Z"/></clipPath>
<clipPath id="c10_23"><path d="M222.3,711.1V685.5h99v25.6Z"/></clipPath>
<clipPath id="c11_23"><path d="M53.4,215V183.9H296.2V215Z"/></clipPath>
<clipPath id="c12_23"><path d="M315.7,215.3V183.6H596.8v31.7Z"/></clipPath>
<clipPath id="c13_23"><path d="M55,1179.1V955.7H371.3v223.4Z"/></clipPath>
</defs>
<image clip-path="url(#c0_23)" preserveAspectRatio="none" x="655" y="374" width="53" height="21" xlink:href="img/1.png"/>
<image clip-path="url(#c1_23)" preserveAspectRatio="none" x="594" y="374" width="53" height="21" xlink:href="img/2.png"/>
<image clip-path="url(#c2_23)" preserveAspectRatio="none" x="528" y="373" width="58" height="22" xlink:href="img/3.png"/>
<image clip-path="url(#c3_23)" preserveAspectRatio="none" x="435" y="368" width="84" height="33" xlink:href="img/4.png"/>
<image clip-path="url(#c4_23)" preserveAspectRatio="none" x="318" y="371" width="110" height="27" xlink:href="img/5.png"/>
<image clip-path="url(#c5_23)" preserveAspectRatio="none" x="171" y="367" width="139" height="35" xlink:href="img/6.png"/>
<image clip-path="url(#c6_23)" preserveAspectRatio="none" x="49" y="367" width="114" height="35" xlink:href="img/7.png"/>
<image clip-path="url(#c7_23)" preserveAspectRatio="none" x="300" y="461" width="234" height="27" xlink:href="img/8.png"/>
<image clip-path="url(#c8_23)" preserveAspectRatio="none" x="54" y="456" width="234" height="36" xlink:href="img/9.png"/>
<image clip-path="url(#c9_23)" preserveAspectRatio="none" x="463" y="540" width="178" height="29" xlink:href="img/10.png"/>
<image clip-path="url(#ca_23)" preserveAspectRatio="none" x="260" y="536" width="180" height="38" xlink:href="img/11.png"/>
<image clip-path="url(#cb_23)" preserveAspectRatio="none" x="55" y="541" width="183" height="27" xlink:href="img/12.png"/>
<image clip-path="url(#cc_23)" preserveAspectRatio="none" x="55" y="225" width="229" height="81" xlink:href="img/13.png"/>
<image clip-path="url(#cd_23)" preserveAspectRatio="none" x="55" y="144" width="196" height="31" xlink:href="img/14.png"/>
<image clip-path="url(#ce_23)" preserveAspectRatio="none" x="271" y="144" width="261" height="31" xlink:href="img/15.png"/>
<image clip-path="url(#cf_23)" preserveAspectRatio="none" x="552" y="144" width="202" height="31" xlink:href="img/16.png"/>
<image clip-path="url(#cg_23)" preserveAspectRatio="none" x="349" y="107" width="188" height="26" xlink:href="img/17.png"/>
<image clip-path="url(#ch_23)" preserveAspectRatio="none" x="169" y="105" width="169" height="31" xlink:href="img/18.png"/>
<image clip-path="url(#ci_23)" preserveAspectRatio="none" x="57" y="105" width="101" height="31" xlink:href="img/19.png"/>
<image clip-path="url(#cj_23)" preserveAspectRatio="none" x="548" y="107" width="159" height="26" xlink:href="img/20.png"/>
<image clip-path="url(#ck_23)" preserveAspectRatio="none" x="717" y="108" width="163" height="25" xlink:href="img/21.png"/>
<image clip-path="url(#cl_23)" preserveAspectRatio="none" x="56" y="581" width="402" height="100" xlink:href="img/22.png"/>
<image clip-path="url(#cm_23)" preserveAspectRatio="none" x="55" y="722" width="193" height="27" xlink:href="img/23.png"/>
<image clip-path="url(#cn_23)" preserveAspectRatio="none" x="259" y="722" width="260" height="27" xlink:href="img/24.png"/>
<image clip-path="url(#co_23)" preserveAspectRatio="none" x="55" y="838" width="207" height="34" xlink:href="img/25.png"/>
<image clip-path="url(#cp_23)" preserveAspectRatio="none" x="274" y="841" width="133" height="28" xlink:href="img/26.png"/>
<image clip-path="url(#cq_23)" preserveAspectRatio="none" x="419" y="842" width="177" height="26" xlink:href="img/27.png"/>
<image clip-path="url(#cr_23)" preserveAspectRatio="none" x="56" y="793" width="254" height="34" xlink:href="img/28.png"/>
<image clip-path="url(#cs_23)" preserveAspectRatio="none" x="320" y="797" width="192" height="26" xlink:href="img/29.png"/>
<image clip-path="url(#ct_23)" preserveAspectRatio="none" x="55" y="760" width="319" height="25" xlink:href="img/30.png"/>
<image clip-path="url(#cu_23)" preserveAspectRatio="none" x="387" y="761" width="257" height="25" xlink:href="img/31.png"/>
<image clip-path="url(#cv_23)" preserveAspectRatio="none" x="482" y="888" width="77" height="21" xlink:href="img/32.png"/>
<image clip-path="url(#cw_23)" preserveAspectRatio="none" x="248" y="883" width="207" height="33" xlink:href="img/33.png"/>
<image clip-path="url(#cx_23)" preserveAspectRatio="none" x="56" y="881" width="165" height="33" xlink:href="img/34.png"/>
<image clip-path="url(#cy_23)" preserveAspectRatio="none" x="355" y="684" width="89" height="29" xlink:href="img/35.png"/>
<image clip-path="url(#cz_23)" preserveAspectRatio="none" x="61" y="686" width="127" height="25" xlink:href="img/36.png"/>
<image clip-path="url(#c10_23)" preserveAspectRatio="none" x="222" y="685" width="99" height="26" xlink:href="img/37.png"/>
<image clip-path="url(#c11_23)" preserveAspectRatio="none" x="53" y="184" width="243" height="31" xlink:href="img/38.png"/>
<image clip-path="url(#c12_23)" preserveAspectRatio="none" x="316" y="184" width="281" height="31" xlink:href="img/39.png"/>
<image clip-path="url(#c13_23)" preserveAspectRatio="none" x="55" y="956" width="316" height="223" xlink:href="img/40.png"/>
</svg>