<?xml version="1.0" encoding="UTF-8" standalone="no"?>
<!DOCTYPE svg PUBLIC "-//W3C//DTD SVG 1.1//EN"
"http://www.w3.org/Graphics/SVG/1.1/DTD/svg11.dtd">
<svg viewBox="0 0 935 1210" version="1.1" xmlns="http://www.w3.org/2000/svg" xmlns:xlink="http://www.w3.org/1999/xlink">
<defs>
<clipPath id="c0_20"><path d="M55,551.1V530.3h69.1v20.8Z"/></clipPath>
<clipPath id="c1_20"><path d="M133.5,551.1V530.3h69.1v20.8Z"/></clipPath>
<clipPath id="c2_20"><path d="M211.9,551.1V530.3h69.2v20.8Z"/></clipPath>
<clipPath id="c3_20"><path d="M52.5,120.2V89.3H285v30.9Z"/></clipPath>
<clipPath id="c4_20"><path d="M250.8,297.1V99h77.1V297.1Z"/></clipPath>
<clipPath id="c5_20"><path d="M55,355.7V334.9H217.8v20.8Z"/></clipPath>
<clipPath id="c6_20"><path d="M58.3,447.3V426.4h111v20.9Z"/></clipPath>
<clipPath id="c7_20"><path d="M184.9,447V428.1h88V447Z"/></clipPath>
<clipPath id="c8_20"><path d="M289.1,446.9V428.1h84.6v18.8Z"/></clipPath>
<clipPath id="c9_20"><path d="M262.5,670.1V641.5H404.3v28.6Z"/></clipPath>
<clipPath id="ca_20"><path d="M436.6,670.1V641.5H654.4v28.6Z"/></clipPath>
<clipPath id="cb_20"><path d="M55,706V684H237.6v22Z"/></clipPath>
<clipPath id="cc_20"><path d="M262.5,703V686.5h79.1V703Z"/></clipPath>
<clipPath id="cd_20"><path d="M55,670V638.2H231V670Z"/></clipPath>
<clipPath id="ce_20"><path d="M55,916.9V887.3H242v29.6Z"/></clipPath>
<clipPath id="cf_20"><path d="M269.2,916.9V887.3H518.8v29.6Z"/></clipPath>
<clipPath id="cg_20"><path d="M546.6,915.6V888.1H725.9v27.5Z"/></clipPath>
<clipPath id="ch_20"><path d="M753.3,916.7V888.1H879.8v28.6Z"/></clipPath>
<clipPath id="ci_20"><path d="M365,874.5V851.4H532.1v23.1Z"/></clipPath>
<clipPath id="cj_20"><path d="M179.2,876.4V848.9H329.8v27.5Z"/></clipPath>
<clipPath id="ck_20"><path d="M566.6,874.3v-22H704.1v22Z"/></clipPath>
<clipPath id="cl_20"><path d="M737.5,874.3v-22H879.3v22Z"/></clipPath>
<clipPath id="cm_20"><path d="M55,876.4V848.9h90.1v27.5Z"/></clipPath>
<clipPath id="cn_20"><path d="M355.8,957.8V931.4H588.9v26.4Z"/></clipPath>
<clipPath id="co_20"><path d="M55,959.4V929.8H287v29.6Z"/></clipPath>
<clipPath id="cp_20"><path d="M55,1051.8V970.6H283.9v81.2Z"/></clipPath>
<clipPath id="cq_20"><path d="M620,1010.5V979.8H879.5v30.7Z"/></clipPath>
<clipPath id="cr_20"><path d="M677.5,1086.1v-23H879.8v23Z"/></clipPath>
<clipPath id="cs_20"><path d="M55,1089.1v-28.5H209v28.5Z"/></clipPath>
<clipPath id="ct_20"><path d="M419.1,1088.3v-28.5H662.2v28.5Z"/></clipPath>
<clipPath id="cu_20"><path d="M224.2,1088.3v-28.5H403.4v28.5Z"/></clipPath>
</defs>
<image clip-path="url(#c0_20)" preserveAspectRatio="none" x="55" y="530" width="69" height="21" xlink:href="img/1.png"/>
<image clip-path="url(#c1_20)" preserveAspectRatio="none" x="133" y="530" width="70" height="21" xlink:href="img/2.png"/>
<image clip-path="url(#c2_20)" preserveAspectRatio="none" x="212" y="530" width="69" height="21" xlink:href="img/3.png"/>
<image clip-path="url(#c3_20)" preserveAspectRatio="none" x="52" y="89" width="233" height="31" xlink:href="img/4.png"/>
<image clip-path="url(#c4_20)" preserveAspectRatio="none" x="251" y="99" width="77" height="198" xlink:href="img/5.png"/>
<image clip-path="url(#c5_20)" preserveAspectRatio="none" x="55" y="335" width="163" height="21" xlink:href="img/6.png"/>
<image clip-path="url(#c6_20)" preserveAspectRatio="none" x="58" y="426" width="111" height="21" xlink:href="img/7.png"/>
<image clip-path="url(#c7_20)" preserveAspectRatio="none" x="185" y="428" width="88" height="19" xlink:href="img/8.png"/>
<image clip-path="url(#c8_20)" preserveAspectRatio="none" x="289" y="428" width="85" height="19" xlink:href="img/9.png"/>
<image clip-path="url(#c9_20)" preserveAspectRatio="none" x="262" y="641" width="142" height="29" xlink:href="img/10.png"/>
<image clip-path="url(#ca_20)" preserveAspectRatio="none" x="437" y="641" width="217" height="29" xlink:href="img/11.png"/>
<image clip-path="url(#cb_20)" preserveAspectRatio="none" x="55" y="684" width="183" height="22" xlink:href="img/12.png"/>
<image clip-path="url(#cc_20)" preserveAspectRatio="none" x="262" y="686" width="80" height="17" xlink:href="img/13.png"/>
<image clip-path="url(#cd_20)" preserveAspectRatio="none" x="55" y="638" width="176" height="32" xlink:href="img/14.png"/>
<image clip-path="url(#ce_20)" preserveAspectRatio="none" x="55" y="887" width="187" height="30" xlink:href="img/15.png"/>
<image clip-path="url(#cf_20)" preserveAspectRatio="none" x="269" y="887" width="250" height="30" xlink:href="img/16.png"/>
<image clip-path="url(#cg_20)" preserveAspectRatio="none" x="547" y="888" width="179" height="28" xlink:href="img/17.png"/>
<image clip-path="url(#ch_20)" preserveAspectRatio="none" x="753" y="888" width="127" height="29" xlink:href="img/18.png"/>
<image clip-path="url(#ci_20)" preserveAspectRatio="none" x="365" y="851" width="167" height="24" xlink:href="img/19.png"/>
<image clip-path="url(#cj_20)" preserveAspectRatio="none" x="179" y="849" width="151" height="27" xlink:href="img/20.png"/>
<image clip-path="url(#ck_20)" preserveAspectRatio="none" x="567" y="852" width="137" height="22" xlink:href="img/21.png"/>
<image clip-path="url(#cl_20)" preserveAspectRatio="none" x="737" y="852" width="142" height="22" xlink:href="img/22.png"/>
<image clip-path="url(#cm_20)" preserveAspectRatio="none" x="55" y="849" width="90" height="27" xlink:href="img/23.png"/>
<image clip-path="url(#cn_20)" preserveAspectRatio="none" x="356" y="931" width="233" height="27" xlink:href="img/24.png"/>
<image clip-path="url(#co_20)" preserveAspectRatio="none" x="55" y="930" width="232" height="29" xlink:href="img/25.png"/>
<image clip-path="url(#cp_20)" preserveAspectRatio="none" x="55" y="971" width="229" height="81" xlink:href="img/26.png"/>
<image clip-path="url(#cq_20)" preserveAspectRatio="none" x="620" y="980" width="260" height="31" xlink:href="img/27.png"/>
<image clip-path="url(#cr_20)" preserveAspectRatio="none" x="677" y="1063" width="203" height="23" xlink:href="img/28.png"/>
<image clip-path="url(#cs_20)" preserveAspectRatio="none" x="55" y="1061" width="154" height="28" xlink:href="img/29.png"/>
<image clip-path="url(#ct_20)" preserveAspectRatio="none" x="419" y="1060" width="243" height="28" xlink:href="img/30.png"/>
<image clip-path="url(#cu_20)" preserveAspectRatio="none" x="224" y="1060" width="179" height="28" xlink:href="img/31.png"/>
</svg>