<?xml version="1.0" encoding="UTF-8" standalone="no"?>
<!DOCTYPE svg PUBLIC "-//W3C//DTD SVG 1.1//EN"
"http://www.w3.org/Graphics/SVG/1.1/DTD/svg11.dtd">
<svg viewBox="0 0 935 1210" version="1.1" xmlns="http://www.w3.org/2000/svg" xmlns:xlink="http://www.w3.org/1999/xlink">
<defs>
<clipPath id="c0_48"><path d="M381.8,876.6v-29H541v29Z"/></clipPath>
<clipPath id="c1_48"><path d="M381.8,909.7V879.9H539.9v29.8Z"/></clipPath>
<clipPath id="c2_48"><path d="M381.8,936.8V913H553.7v23.8Z"/></clipPath>
<clipPath id="c3_48"><path d="M143.6,588.8v-251H482.8v251Z"/></clipPath>
<clipPath id="c4_48"><path d="M579.4,575.8v-238H791.8v238Z"/></clipPath>
<clipPath id="c5_48"><path d="M351.6,175.4V147.9H457v27.5Z"/></clipPath>
<clipPath id="c6_48"><path d="M351.6,206.3V178.8H473.8v27.5Z"/></clipPath>
<clipPath id="c7_48"><path d="M351.6,237.3V209.8H523.5v27.5Z"/></clipPath>
<clipPath id="c8_48"><path d="M351.6,268.2V240.7H583.1v27.5Z"/></clipPath>
<style type="text/css"><![CDATA[
.g0_48{
}
]]></style>
</defs>
<path d="M55.2,930h220v-.7H55.2v.7Z" class="g0_48"/>
<image clip-path="url(#c0_48)" preserveAspectRatio="none" x="382" y="848" width="159" height="29" xlink:href="img/1.png"/>
<image clip-path="url(#c1_48)" preserveAspectRatio="none" x="382" y="880" width="158" height="30" xlink:href="img/2.png"/>
<image clip-path="url(#c2_48)" preserveAspectRatio="none" x="382" y="913" width="172" height="24" xlink:href="img/3.png"/>
<image clip-path="url(#c3_48)" preserveAspectRatio="none" x="144" y="338" width="339" height="251" xlink:href="img/4.png"/>
<image clip-path="url(#c4_48)" preserveAspectRatio="none" x="579" y="338" width="213" height="238" xlink:href="img/5.png"/>
<image clip-path="url(#c5_48)" preserveAspectRatio="none" x="352" y="148" width="105" height="27" xlink:href="img/6.png"/>
<image clip-path="url(#c6_48)" preserveAspectRatio="none" x="352" y="179" width="122" height="27" xlink:href="img/7.png"/>
<image clip-path="url(#c7_48)" preserveAspectRatio="none" x="352" y="210" width="171" height="27" xlink:href="img/8.png"/>
<image clip-path="url(#c8_48)" preserveAspectRatio="none" x="352" y="241" width="231" height="27" xlink:href="img/9.png"/>
</svg>