<?xml version="1.0" encoding="UTF-8" standalone="no"?>
<!DOCTYPE svg PUBLIC "-//W3C//DTD SVG 1.1//EN"
"http://www.w3.org/Graphics/SVG/1.1/DTD/svg11.dtd">
<svg viewBox="0 0 935 1210" version="1.1" xmlns="http://www.w3.org/2000/svg" xmlns:xlink="http://www.w3.org/1999/xlink">
<defs>
<clipPath id="c0_58"><path d="M55.2,490.3V413.9H695v76.4Z"/></clipPath>
<clipPath id="c1_58"><path d="M262.7,396.5V188.1H754V396.5Z"/></clipPath>
<clipPath id="c2_58"><path d="M110.2,334.6V253.9H601.5v80.7Z"/></clipPath>
<clipPath id="c3_58"><path d="M55.2,276.2V238.9H481.1v37.3Z"/></clipPath>
<clipPath id="c4_58"><path d="M55.2,217.8V180.6H481.1v37.2Z"/></clipPath>
<clipPath id="c5_58"><path d="M112.9,152.9V60.6H689.8v92.3Z"/></clipPath>
<clipPath id="c6_58"><path d="M0,1210V0H935V1210Z"/></clipPath>
<clipPath id="c7_58"><path d="M55.2,589.5V497.2H643.1v92.3Z"/></clipPath>
<clipPath id="c8_58"><path d="M55.2,744.1V671.4H511.1v72.7Z"/></clipPath>
<clipPath id="c9_58"><path d="M55.2,663.4V601.6H600.9v61.8Z"/></clipPath>
<clipPath id="ca_58"><path d="M504.1,655.1V600.6h173v54.5Z"/></clipPath>
<clipPath id="cb_58"><path d="M55.2,801.2V763.9H685.4v37.3Z"/></clipPath>
<style type="text/css"><![CDATA[
.g0_58{
fill: #FFFF00;
fill-opacity: 0.149;
}
.g1_58{
}
]]></style>
</defs>
<image clip-path="url(#c0_58)" preserveAspectRatio="none" x="55" y="414" width="640" height="76" xlink:href="img/1.png"/>
<image clip-path="url(#c1_58)" preserveAspectRatio="none" x="263" y="188" width="491" height="208" xlink:href="img/2.png"/>
<image clip-path="url(#c2_58)" preserveAspectRatio="none" x="110" y="254" width="492" height="81" xlink:href="img/3.png"/>
<image clip-path="url(#c3_58)" preserveAspectRatio="none" x="55" y="239" width="426" height="37" xlink:href="img/4.png"/>
<image clip-path="url(#c4_58)" preserveAspectRatio="none" x="55" y="181" width="426" height="37" xlink:href="img/5.png"/>
<image clip-path="url(#c5_58)" preserveAspectRatio="none" x="113" y="61" width="577" height="92" xlink:href="img/6.png"/>
<image clip-path="url(#c6_58)" preserveAspectRatio="none" x="497" y="62" width="194" height="88" xlink:href="img/7.png"/>
<path fill-rule="evenodd" d="M501.6,77c0,-7.3,5.9,-13.1,13.1,-13.1H672.6c7.2,0,13.1,5.8,13.1,13.1v52.4c0,7.3,-5.9,13.1,-13.1,13.1H514.7c-7.2,0,-13.1,-5.8,-13.1,-13.1Z" class="g0_58"/>
<image clip-path="url(#c6_58)" preserveAspectRatio="none" x="60" y="134" width="51" height="24" xlink:href="img/8.png"/>
<path d="M64.8,141.9h38.4V145H64.8Zm30,-5.1l11.4,6.7l-11.4,6.6c-.7,.4,-1.7,.2,-2.1,-.5c-.4,-.8,-.2,-1.7,.5,-2.1l9.2,-5.4v2.7l-9.2,-5.4c-.7,-.4,-.9,-1.3,-.5,-2.1c.4,-.7,1.4,-.9,2.1,-.5Z" class="g1_58"/>
<image clip-path="url(#c7_58)" preserveAspectRatio="none" x="55" y="497" width="588" height="93" xlink:href="img/9.png"/>
<image clip-path="url(#c8_58)" preserveAspectRatio="none" x="55" y="671" width="456" height="73" xlink:href="img/10.png"/>
<image clip-path="url(#c9_58)" preserveAspectRatio="none" x="55" y="602" width="546" height="61" xlink:href="img/11.png"/>
<image clip-path="url(#ca_58)" preserveAspectRatio="none" x="504" y="601" width="173" height="54" xlink:href="img/12.png"/>
<image clip-path="url(#cb_58)" preserveAspectRatio="none" x="55" y="764" width="630" height="37" xlink:href="img/13.png"/>
</svg>