<?xml version="1.0" encoding="UTF-8" standalone="no"?>
<!DOCTYPE svg PUBLIC "-//W3C//DTD SVG 1.1//EN"
"http://www.w3.org/Graphics/SVG/1.1/DTD/svg11.dtd">
<svg viewBox="0 0 935 1210" version="1.1" xmlns="http://www.w3.org/2000/svg" xmlns:xlink="http://www.w3.org/1999/xlink">
<defs>
<clipPath id="c0_154"><path d="M197.1,92.1V57.3H348.3V92.1Z"/></clipPath>
<clipPath id="c1_154"><path d="M55.2,92.1V57.3H183.5V92.1Z"/></clipPath>
<clipPath id="c2_154"><path d="M55.2,320.5V182.1H303.6V320.5Z"/></clipPath>
<clipPath id="c3_154"><path d="M321.2,320.5V187.6H620V320.5Z"/></clipPath>
<clipPath id="c4_154"><path d="M388.3,380.9V242.5H879.6V380.9Z"/></clipPath>
<clipPath id="c5_154"><path d="M55.2,811.9v-242H658.4v242Z"/></clipPath>
<clipPath id="c6_154"><path d="M55.2,1102.8V885.3H446.7v217.5Z"/></clipPath>
</defs>
<image clip-path="url(#c0_154)" preserveAspectRatio="none" x="197" y="57" width="151" height="35" xlink:href="img/1.png"/>
<image clip-path="url(#c1_154)" preserveAspectRatio="none" x="55" y="57" width="129" height="35" xlink:href="img/2.png"/>
<image clip-path="url(#c2_154)" preserveAspectRatio="none" x="55" y="182" width="249" height="139" xlink:href="img/3.png"/>
<image clip-path="url(#c3_154)" preserveAspectRatio="none" x="321" y="188" width="299" height="133" xlink:href="img/4.png"/>
<image clip-path="url(#c4_154)" preserveAspectRatio="none" x="388" y="242" width="492" height="139" xlink:href="img/5.png"/>
<image clip-path="url(#c5_154)" preserveAspectRatio="none" x="55" y="570" width="603" height="242" xlink:href="img/6.png"/>
<image clip-path="url(#c6_154)" preserveAspectRatio="none" x="55" y="885" width="392" height="218" xlink:href="img/7.png"/>
</svg>