<?xml version="1.0" encoding="UTF-8" standalone="no"?>
<!DOCTYPE svg PUBLIC "-//W3C//DTD SVG 1.1//EN"
"http://www.w3.org/Graphics/SVG/1.1/DTD/svg11.dtd">
<svg viewBox="0 0 935 1210" version="1.1" xmlns="http://www.w3.org/2000/svg" xmlns:xlink="http://www.w3.org/1999/xlink">
<defs>
<clipPath id="c0_143"><path d="M55,298.9V53.2H602.6V298.9Z"/></clipPath>
<clipPath id="c1_143"><path d="M56.5,566.8v-261H643.1v261Z"/></clipPath>
<clipPath id="c2_143"><path d="M55,830V577H670.2V830Z"/></clipPath>
<clipPath id="c3_143"><path d="M249.3,925.9V895.7H503.2v30.2Z"/></clipPath>
<clipPath id="c4_143"><path d="M524.3,926.8V891.1H845.1v35.7Z"/></clipPath>
<clipPath id="c5_143"><path d="M54.2,1030.5v-24.8H210v24.8Z"/></clipPath>
<clipPath id="c6_143"><path d="M220.7,1030.6v-24.8H378.4v24.8Z"/></clipPath>
</defs>
<image clip-path="url(#c0_143)" preserveAspectRatio="none" x="55" y="53" width="548" height="246" xlink:href="img/1.png"/>
<image clip-path="url(#c1_143)" preserveAspectRatio="none" x="57" y="306" width="586" height="261" xlink:href="img/2.png"/>
<image clip-path="url(#c2_143)" preserveAspectRatio="none" x="55" y="577" width="615" height="253" xlink:href="img/3.png"/>
<image clip-path="url(#c3_143)" preserveAspectRatio="none" x="249" y="896" width="254" height="30" xlink:href="img/4.png"/>
<image clip-path="url(#c4_143)" preserveAspectRatio="none" x="524" y="891" width="321" height="36" xlink:href="img/5.png"/>
<image clip-path="url(#c5_143)" preserveAspectRatio="none" x="54" y="1006" width="156" height="24" xlink:href="img/6.png"/>
<image clip-path="url(#c6_143)" preserveAspectRatio="none" x="221" y="1006" width="157" height="25" xlink:href="img/7.png"/>
</svg>