<?xml version="1.0" encoding="UTF-8" standalone="no"?>
<!DOCTYPE svg PUBLIC "-//W3C//DTD SVG 1.1//EN"
"http://www.w3.org/Graphics/SVG/1.1/DTD/svg11.dtd">
<svg viewBox="0 0 935 1210" version="1.1" xmlns="http://www.w3.org/2000/svg" xmlns:xlink="http://www.w3.org/1999/xlink">
<defs>
<clipPath id="c0_143"><path d="M659.7,564.3V532.1h172v32.2Z"/></clipPath>
<clipPath id="c1_143"><path d="M794.7,431V347h84v84Z"/></clipPath>
<clipPath id="c2_143"><path d="M225.6,564.1V534.8H396.7v29.3Z"/></clipPath>
<clipPath id="c3_143"><path d="M699.4,885.7V793.1H880.2v92.6Z"/></clipPath>
<clipPath id="c4_143"><path d="M352.9,1060v-20.8h20.8V1060Z"/></clipPath>
<clipPath id="c5_143"><path d="M640.1,1060.7v-22.3h22.3v22.3Z"/></clipPath>
<style type="text/css"><![CDATA[
.g0_143{
}
.g1_143{
fill: none;
stroke: #000000;
stroke-width: 1.145;
stroke-linecap: butt;
stroke-linejoin: round;
}
]]></style>
</defs>
<path d="M113.9,763.6h70v-.8h-70v.8Z" class="g0_143"/>
<path d="M543.6,1104.6H654.3v-.8H543.6v.8Z" class="g0_143"/>
<image clip-path="url(#c0_143)" preserveAspectRatio="none" x="660" y="532" width="172" height="32" xlink:href="img/1.jpg"/>
<image clip-path="url(#c1_143)" preserveAspectRatio="none" x="795" y="347" width="84" height="84" xlink:href="img/2.jpg"/>
<image clip-path="url(#c2_143)" preserveAspectRatio="none" x="226" y="535" width="171" height="29" xlink:href="img/3.jpg"/>
<image clip-path="url(#c3_143)" preserveAspectRatio="none" x="699" y="793" width="181" height="93" xlink:href="img/4.png"/>
<image clip-path="url(#c4_143)" preserveAspectRatio="none" x="353" y="1039" width="21" height="21" xlink:href="img/5.jpg"/>
<path d="M352.3,1038.6h21.9v21.9H352.3Z" class="g1_143"/>
<image clip-path="url(#c5_143)" preserveAspectRatio="none" x="640" y="1038" width="22" height="23" xlink:href="img/6.png"/>
</svg>