<?xml version="1.0" encoding="UTF-8" standalone="no"?>
<!DOCTYPE svg PUBLIC "-//W3C//DTD SVG 1.1//EN"
"http://www.w3.org/Graphics/SVG/1.1/DTD/svg11.dtd">
<svg viewBox="0 0 935 1210" version="1.1" xmlns="http://www.w3.org/2000/svg" xmlns:xlink="http://www.w3.org/1999/xlink">
<defs>
<clipPath id="c0_39"><path d="M512.6,879.7V823.2h301v56.5Z"/></clipPath>
<clipPath id="c1_39"><path d="M485.3,869.5L497,846.1L485.3,834.3v11.8H438.4v11.7h46.9v11.7ZM0,1210V0H935V1210Z"/></clipPath>
<clipPath id="c2_39"><path d="M121,879.7V823.2H421.9v56.5Z"/></clipPath>
<clipPath id="c3_39"><path d="M708.2,869.5V846.1l-11.7,11.7v11.7ZM0,1210V0H935V1210Z"/></clipPath>
<clipPath id="c4_39"><path d="M534.6,477.2V457.3h35.1v19.9Z"/></clipPath>
<style type="text/css"><![CDATA[
.g0_39{
fill: none;
stroke: #F07C03;
stroke-width: 1.145;
stroke-linecap: butt;
stroke-linejoin: miter;
stroke-miterlimit: 8;
}
]]></style>
</defs>
<image clip-path="url(#c0_39)" preserveAspectRatio="none" x="513" y="823" width="301" height="57" xlink:href="img/1.jpg"/>
<image clip-path="url(#c1_39)" preserveAspectRatio="none" x="427" y="829" width="80" height="50" xlink:href="img/2.png"/>
<image x="438" y="838" width="58" height="27" xlink:href="shade/1.png"/>
<path d="M438.8,844.9h43.7v-6.3l12.8,12.7L482.5,864v-6.3H438.8Z" class="g0_39"/>
<image clip-path="url(#c2_39)" preserveAspectRatio="none" x="121" y="823" width="301" height="57" xlink:href="img/3.jpg"/>
<image clip-path="url(#c3_39)" preserveAspectRatio="none" x="687" y="839" width="34" height="40" xlink:href="img/4.png"/>
<image x="698" y="847" width="12" height="19" xlink:href="shade/2.png"/>
<image x="698" y="847" width="12" height="19" xlink:href="shade/3.png"/>
<path d="M709.1,853.1h-2.6v12.3h-5.2V853.1h-2.5l5.1,-5.2Z" class="g0_39"/>
<image clip-path="url(#c4_39)" preserveAspectRatio="none" x="535" y="457" width="35" height="20" xlink:href="img/5.jpg"/>
</svg>