<?xml version="1.0" encoding="UTF-8" standalone="no"?>
<!DOCTYPE svg PUBLIC "-//W3C//DTD SVG 1.1//EN"
"http://www.w3.org/Graphics/SVG/1.1/DTD/svg11.dtd">
<svg viewBox="0 0 935 1210" version="1.1" xmlns="http://www.w3.org/2000/svg" xmlns:xlink="http://www.w3.org/1999/xlink">
<defs>
<clipPath id="c0_64"><path d="M617.2,494.3V468.5H751.3v25.8Z"/></clipPath>
<clipPath id="c1_64"><path d="M154.5,707.4V568.3H378.3V707.4Z"/></clipPath>
<clipPath id="c2_64"><path d="M56.7,1055.2V382.3h80.9v672.9Z"/></clipPath>
<clipPath id="c3_64"><path d="M207.1,971.1V832H430.9V971.1Z"/></clipPath>
<clipPath id="c4_64"><path d="M150.7,1051.2v-29.8H282.5v29.8Z"/></clipPath>
<clipPath id="c5_64"><path d="M601.1,419.5V404.6H619v14.9Z"/></clipPath>
<clipPath id="c6_64"><path d="M602.8,96.9v-54H770.1v54Z"/></clipPath>
<clipPath id="c7_64"><path d="M120.9,99.1V40.6h432V99.1Z"/></clipPath>
<clipPath id="c8_64"><path d="M679.5,784.6V755.3H816.4v29.3Z"/></clipPath>
</defs>
<image clip-path="url(#c0_64)" preserveAspectRatio="none" x="617" y="468" width="134" height="26" xlink:href="img/1.png"/>
<image clip-path="url(#c1_64)" preserveAspectRatio="none" x="155" y="568" width="223" height="139" xlink:href="img/2.png"/>
<image clip-path="url(#c2_64)" preserveAspectRatio="none" x="57" y="382" width="81" height="673" xlink:href="img/3.png"/>
<image clip-path="url(#c3_64)" preserveAspectRatio="none" x="207" y="832" width="224" height="139" xlink:href="img/4.png"/>
<image clip-path="url(#c4_64)" preserveAspectRatio="none" x="151" y="1021" width="131" height="30" xlink:href="img/5.png"/>
<image clip-path="url(#c5_64)" preserveAspectRatio="none" x="601" y="405" width="18" height="14" xlink:href="img/6.png"/>
<image clip-path="url(#c6_64)" preserveAspectRatio="none" x="603" y="43" width="167" height="54" xlink:href="img/7.png"/>
<image clip-path="url(#c7_64)" preserveAspectRatio="none" x="121" y="41" width="432" height="58" xlink:href="img/8.png"/>
<image clip-path="url(#c8_64)" preserveAspectRatio="none" x="679" y="755" width="137" height="30" xlink:href="img/9.png"/>
</svg>