<?xml version="1.0" encoding="UTF-8" standalone="no"?>
<!DOCTYPE svg PUBLIC "-//W3C//DTD SVG 1.1//EN"
"http://www.w3.org/Graphics/SVG/1.1/DTD/svg11.dtd">
<svg viewBox="0 0 935 1210" version="1.1" xmlns="http://www.w3.org/2000/svg" xmlns:xlink="http://www.w3.org/1999/xlink">
<defs>
<clipPath id="c0_59"><path d="M517.1,206.7V183.3H668.4v23.4Z"/></clipPath>
<clipPath id="c1_59"><path d="M183.3,1081.5V626.6H752.1v454.9Z"/></clipPath>
<clipPath id="c2_59"><path d="M325.6,600V423.5H609.8V600Z"/></clipPath>
<clipPath id="c3_59"><path d="M700.5,1009.7V987.9h21.7v21.8Z"/></clipPath>
<style type="text/css"><![CDATA[
.g0_59{
}
.g1_59{
fill: none;
stroke: #FF0000;
stroke-width: 3.053;
stroke-linecap: butt;
stroke-linejoin: round;
}
]]></style>
</defs>
<image clip-path="url(#c0_59)" preserveAspectRatio="none" x="517" y="183" width="151" height="24" xlink:href="img/1.png"/>
<path d="M55.2,78.3h33V77.2h-33v1.1Z" class="g0_59"/>
<path d="M88.2,78.3H229V77.2H88.2v1.1Z" class="g0_59"/>
<image clip-path="url(#c1_59)" preserveAspectRatio="none" x="183" y="627" width="569" height="455" xlink:href="img/2.png"/>
<image clip-path="url(#c2_59)" preserveAspectRatio="none" x="326" y="424" width="284" height="176" xlink:href="img/3.jpg"/>
<path d="M555.9,518.9c0,-6.2,3.9,-11.1,8.6,-11.1c4.8,0,8.6,4.9,8.6,11.1c0,6.2,-3.8,11.2,-8.6,11.2c-4.7,0,-8.6,-5,-8.6,-11.2Z" class="g1_59"/>
<image clip-path="url(#c3_59)" preserveAspectRatio="none" x="700" y="988" width="22" height="22" xlink:href="img/4.png"/>
</svg>