<?xml version="1.0" encoding="UTF-8" standalone="no"?>
<!DOCTYPE svg PUBLIC "-//W3C//DTD SVG 1.1//EN"
"http://www.w3.org/Graphics/SVG/1.1/DTD/svg11.dtd">
<svg viewBox="0 0 935 1210" version="1.1" xmlns="http://www.w3.org/2000/svg" xmlns:xlink="http://www.w3.org/1999/xlink">
<defs>
<clipPath id="c0_75"><path d="M361.8,894.9V740.7H545.9V894.9Z"/></clipPath>
<clipPath id="c1_75"><path d="M124,148.4V71.3H351.6v77.1Z"/></clipPath>
<clipPath id="c2_75"><path d="M395.9,148.4V59.8h414v88.6Z"/></clipPath>
<clipPath id="c3_75"><path d="M183.5,311.4V286.2H443.3v25.2Z"/></clipPath>
<clipPath id="c4_75"><path d="M511.8,314.5V283.2H751.7v31.3Z"/></clipPath>
<clipPath id="c5_75"><path d="M272.2,509.2V418.3H662.1v90.9Z"/></clipPath>
<clipPath id="c6_75"><path d="M243.9,1079.8v-77.1H435.6v77.1Z"/></clipPath>
<clipPath id="c7_75"><path d="M495.7,1079.8v-77.1H692.1v77.1Z"/></clipPath>
<clipPath id="c8_75"><path d="M243.3,1183.4v-77.1H435v77.1Z"/></clipPath>
<clipPath id="c9_75"><path d="M492.8,1188v-81.7H689.1V1188Z"/></clipPath>
</defs>
<image clip-path="url(#c0_75)" preserveAspectRatio="none" x="362" y="741" width="184" height="154" xlink:href="img/1.png"/>
<image clip-path="url(#c1_75)" preserveAspectRatio="none" x="124" y="71" width="228" height="77" xlink:href="img/2.png"/>
<image clip-path="url(#c2_75)" preserveAspectRatio="none" x="396" y="60" width="414" height="88" xlink:href="img/3.png"/>
<image clip-path="url(#c3_75)" preserveAspectRatio="none" x="184" y="286" width="259" height="25" xlink:href="img/4.png"/>
<image clip-path="url(#c4_75)" preserveAspectRatio="none" x="512" y="283" width="240" height="31" xlink:href="img/5.png"/>
<image clip-path="url(#c5_75)" preserveAspectRatio="none" x="272" y="418" width="390" height="91" xlink:href="img/6.png"/>
<image clip-path="url(#c6_75)" preserveAspectRatio="none" x="244" y="1003" width="192" height="77" xlink:href="img/7.png"/>
<image clip-path="url(#c7_75)" preserveAspectRatio="none" x="496" y="1003" width="196" height="77" xlink:href="img/8.png"/>
<image clip-path="url(#c8_75)" preserveAspectRatio="none" x="243" y="1106" width="192" height="77" xlink:href="img/9.png"/>
<image clip-path="url(#c9_75)" preserveAspectRatio="none" x="493" y="1106" width="196" height="82" xlink:href="img/10.png"/>
</svg>