<?xml version="1.0" encoding="UTF-8" standalone="no"?>
<!DOCTYPE svg PUBLIC "-//W3C//DTD SVG 1.1//EN"
"http://www.w3.org/Graphics/SVG/1.1/DTD/svg11.dtd">
<svg viewBox="0 0 935 1210" version="1.1" xmlns="http://www.w3.org/2000/svg" xmlns:xlink="http://www.w3.org/1999/xlink">
<defs>
<clipPath id="c0_32"><path d="M55.8,424.8V309.3H262V424.8Z"/></clipPath>
<clipPath id="c1_32"><path d="M596,346.4V328.1h32.1v18.3Z"/></clipPath>
<clipPath id="c2_32"><path d="M53.2,777.9V607.4H259.4V777.9Z"/></clipPath>
<clipPath id="c3_32"><path d="M59,874.7V828.9H390.1v45.8Z"/></clipPath>
<clipPath id="c4_32"><path d="M406.5,874.7V828.9H591v45.8Z"/></clipPath>
<clipPath id="c5_32"><path d="M60,962.2v-23H885v23Z"/></clipPath>
<clipPath id="c6_32"><path d="M57,932.7V922.5H882v10.2Z"/></clipPath>
<clipPath id="c7_32"><path d="M55,251.7V88.5H206.6V251.7Z"/></clipPath>
</defs>
<image clip-path="url(#c0_32)" preserveAspectRatio="none" x="56" y="309" width="206" height="116" xlink:href="img/1.png"/>
<image clip-path="url(#c1_32)" preserveAspectRatio="none" x="596" y="328" width="32" height="18" xlink:href="img/2.png"/>
<image clip-path="url(#c2_32)" preserveAspectRatio="none" x="53" y="607" width="206" height="171" xlink:href="img/3.png"/>
<image clip-path="url(#c3_32)" preserveAspectRatio="none" x="59" y="829" width="331" height="46" xlink:href="img/4.png"/>
<image clip-path="url(#c4_32)" preserveAspectRatio="none" x="407" y="829" width="184" height="46" xlink:href="img/5.png"/>
<image clip-path="url(#c5_32)" preserveAspectRatio="none" x="60" y="939" width="825" height="23" xlink:href="img/6.png"/>
<image clip-path="url(#c6_32)" preserveAspectRatio="none" x="57" y="923" width="825" height="10" xlink:href="img/7.png"/>
<image clip-path="url(#c7_32)" preserveAspectRatio="none" x="55" y="89" width="152" height="163" xlink:href="img/8.png"/>
</svg>