<?xml version="1.0" encoding="UTF-8" standalone="no"?>
<!DOCTYPE svg PUBLIC "-//W3C//DTD SVG 1.1//EN"
"http://www.w3.org/Graphics/SVG/1.1/DTD/svg11.dtd">
<svg viewBox="0 0 935 1210" version="1.1" xmlns="http://www.w3.org/2000/svg" xmlns:xlink="http://www.w3.org/1999/xlink">
<defs>
<clipPath id="c0_16"><path d="M53.9,285.9V120.1H231.5V285.9Z"/></clipPath>
<clipPath id="c1_16"><path d="M320.8,277.7V139.5H631.7V277.7Z"/></clipPath>
<clipPath id="c2_16"><path d="M705.8,248.7V167h152v81.7Z"/></clipPath>
<clipPath id="c3_16"><path d="M187.3,496.8V405.1H375.2v91.7Z"/></clipPath>
<clipPath id="c4_16"><path d="M447,487.1V405.3H611.3v81.8Z"/></clipPath>
<clipPath id="c5_16"><path d="M186.4,658.9V567.3H374.3v91.6Z"/></clipPath>
<clipPath id="c6_16"><path d="M450.2,653.1V571.4H614.4v81.7Z"/></clipPath>
<clipPath id="c7_16"><path d="M55,1040.9V924.8H197.1v116.1Z"/></clipPath>
</defs>
<image clip-path="url(#c0_16)" preserveAspectRatio="none" x="54" y="120" width="177" height="166" xlink:href="img/1.jpg"/>
<image clip-path="url(#c1_16)" preserveAspectRatio="none" x="321" y="139" width="311" height="139" xlink:href="img/2.jpg"/>
<image clip-path="url(#c2_16)" preserveAspectRatio="none" x="706" y="167" width="152" height="82" xlink:href="img/3.png"/>
<image clip-path="url(#c3_16)" preserveAspectRatio="none" x="187" y="405" width="188" height="92" xlink:href="img/4.jpg"/>
<image clip-path="url(#c4_16)" preserveAspectRatio="none" x="447" y="405" width="164" height="82" xlink:href="img/5.png"/>
<image clip-path="url(#c5_16)" preserveAspectRatio="none" x="186" y="567" width="188" height="92" xlink:href="img/6.jpg"/>
<image clip-path="url(#c6_16)" preserveAspectRatio="none" x="450" y="571" width="164" height="82" xlink:href="img/7.png"/>
<image clip-path="url(#c7_16)" preserveAspectRatio="none" x="55" y="925" width="142" height="116" xlink:href="img/8.png"/>
</svg>