<?xml version="1.0" encoding="UTF-8" standalone="no"?>
<!DOCTYPE svg PUBLIC "-//W3C//DTD SVG 1.1//EN"
"http://www.w3.org/Graphics/SVG/1.1/DTD/svg11.dtd">
<svg viewBox="0 0 935 1210" version="1.1" xmlns="http://www.w3.org/2000/svg" xmlns:xlink="http://www.w3.org/1999/xlink">
<defs>
<clipPath id="c0_10"><path d="M366.1,510V403.9H545.5V510Z"/></clipPath>
<clipPath id="c1_10"><path d="M195,1101.1v-17.2h80.2v17.2Z"/></clipPath>
<clipPath id="c2_10"><path d="M710.6,1189v-57.1H872.1V1189Z"/></clipPath>
<clipPath id="c3_10"><path d="M55,930.3V758.4H213.9V930.3Z"/></clipPath>
<clipPath id="c4_10"><path d="M357.8,950.5V846.3H451V950.5Z"/></clipPath>
<clipPath id="c5_10"><path d="M720.4,950.5V855.9h92.5v94.6Z"/></clipPath>
<clipPath id="c6_10"><path d="M654.6,950.5V861.9h68.7v88.6Z"/></clipPath>
<clipPath id="c7_10"><path d="M276.5,950.5V861.9h68.8v88.6Z"/></clipPath>
<clipPath id="c8_10"><path d="M246.3,851.4V759.8h68v91.6Z"/></clipPath>
<clipPath id="c9_10"><path d="M330.6,851.4V759.8h71.8v91.6Z"/></clipPath>
<clipPath id="ca_10"><path d="M418.8,851.4V759.8h72.5v91.6Z"/></clipPath>
<clipPath id="cb_10"><path d="M507.7,851.4V759.8h71.8v91.6Z"/></clipPath>
<clipPath id="cc_10"><path d="M595.8,851.4V759.8h72.6v91.6Z"/></clipPath>
<clipPath id="cd_10"><path d="M684.8,851.4V759.8h71.8v91.6Z"/></clipPath>
<clipPath id="ce_10"><path d="M772.9,851.4V759.8h68v91.6Z"/></clipPath>
</defs>
<image clip-path="url(#c0_10)" preserveAspectRatio="none" x="366" y="404" width="179" height="106" xlink:href="img/1.jpg"/>
<image clip-path="url(#c1_10)" preserveAspectRatio="none" x="195" y="1084" width="80" height="17" xlink:href="img/2.png"/>
<image clip-path="url(#c2_10)" preserveAspectRatio="none" x="711" y="1132" width="161" height="57" xlink:href="img/3.jpg"/>
<image clip-path="url(#c3_10)" preserveAspectRatio="none" x="55" y="758" width="159" height="172" xlink:href="img/4.png"/>
<image clip-path="url(#c4_10)" preserveAspectRatio="none" x="358" y="846" width="93" height="105" xlink:href="img/5.png"/>
<image clip-path="url(#c5_10)" preserveAspectRatio="none" x="720" y="856" width="93" height="95" xlink:href="img/6.png"/>
<image clip-path="url(#c6_10)" preserveAspectRatio="none" x="655" y="862" width="68" height="89" xlink:href="img/7.jpg"/>
<image clip-path="url(#c7_10)" preserveAspectRatio="none" x="277" y="862" width="68" height="89" xlink:href="img/8.jpg"/>
<image clip-path="url(#c8_10)" preserveAspectRatio="none" x="246" y="760" width="68" height="91" xlink:href="img/9.png"/>
<image clip-path="url(#c9_10)" preserveAspectRatio="none" x="331" y="760" width="71" height="91" xlink:href="img/10.png"/>
<image clip-path="url(#ca_10)" preserveAspectRatio="none" x="419" y="760" width="72" height="91" xlink:href="img/11.png"/>
<image clip-path="url(#cb_10)" preserveAspectRatio="none" x="508" y="760" width="71" height="91" xlink:href="img/12.png"/>
<image clip-path="url(#cc_10)" preserveAspectRatio="none" x="596" y="760" width="72" height="91" xlink:href="img/13.png"/>
<image clip-path="url(#cd_10)" preserveAspectRatio="none" x="685" y="760" width="72" height="91" xlink:href="img/14.png"/>
<image clip-path="url(#ce_10)" preserveAspectRatio="none" x="773" y="760" width="68" height="91" xlink:href="img/15.png"/>
</svg>