<?xml version="1.0" encoding="UTF-8" standalone="no"?>
<!DOCTYPE svg PUBLIC "-//W3C//DTD SVG 1.1//EN"
"http://www.w3.org/Graphics/SVG/1.1/DTD/svg11.dtd">
<svg viewBox="0 0 935 1210" version="1.1" xmlns="http://www.w3.org/2000/svg" xmlns:xlink="http://www.w3.org/1999/xlink">
<defs>
<clipPath id="c0_10"><path d="M366.1,459.9V353.7H545.5V459.9Z"/></clipPath>
<clipPath id="c1_10"><path d="M195,1020.3v-17.2h80.2v17.2Z"/></clipPath>
<clipPath id="c2_10"><path d="M372.8,1140.9v-67.2H562.2v67.2Z"/></clipPath>
<clipPath id="c3_10"><path d="M55,880.1V708.2H213.9V880.1Z"/></clipPath>
<clipPath id="c4_10"><path d="M357.8,900.3V796.1H451V900.3Z"/></clipPath>
<clipPath id="c5_10"><path d="M720.4,900.3V805.7h92.5v94.6Z"/></clipPath>
<clipPath id="c6_10"><path d="M654.6,900.3V811.7h68.7v88.6Z"/></clipPath>
<clipPath id="c7_10"><path d="M276.5,900.3V811.7h68.8v88.6Z"/></clipPath>
<clipPath id="c8_10"><path d="M246.3,801.2V709.6h68v91.6Z"/></clipPath>
<clipPath id="c9_10"><path d="M330.6,801.2V709.6h71.8v91.6Z"/></clipPath>
<clipPath id="ca_10"><path d="M418.8,801.2V709.6h72.5v91.6Z"/></clipPath>
<clipPath id="cb_10"><path d="M507.7,801.2V709.6h71.8v91.6Z"/></clipPath>
<clipPath id="cc_10"><path d="M595.8,801.2V709.6h72.6v91.6Z"/></clipPath>
<clipPath id="cd_10"><path d="M684.8,801.2V709.6h71.8v91.6Z"/></clipPath>
<clipPath id="ce_10"><path d="M772.9,801.2V709.6h68v91.6Z"/></clipPath>
<clipPath id="cf_10"><path d="M146.3,82.4V54.2H266.2V82.4Z"/></clipPath>
</defs>
<image clip-path="url(#c0_10)" preserveAspectRatio="none" x="366" y="354" width="179" height="106" xlink:href="img/1.jpg"/>
<image clip-path="url(#c1_10)" preserveAspectRatio="none" x="195" y="1003" width="80" height="17" xlink:href="img/2.png"/>
<image clip-path="url(#c2_10)" preserveAspectRatio="none" x="373" y="1074" width="189" height="67" xlink:href="img/3.jpg"/>
<image clip-path="url(#c3_10)" preserveAspectRatio="none" x="55" y="708" width="159" height="172" xlink:href="img/4.png"/>
<image clip-path="url(#c4_10)" preserveAspectRatio="none" x="358" y="796" width="93" height="104" xlink:href="img/5.png"/>
<image clip-path="url(#c5_10)" preserveAspectRatio="none" x="720" y="806" width="93" height="94" xlink:href="img/6.png"/>
<image clip-path="url(#c6_10)" preserveAspectRatio="none" x="655" y="812" width="68" height="88" xlink:href="img/7.jpg"/>
<image clip-path="url(#c7_10)" preserveAspectRatio="none" x="277" y="812" width="68" height="88" xlink:href="img/8.jpg"/>
<image clip-path="url(#c8_10)" preserveAspectRatio="none" x="246" y="710" width="68" height="91" xlink:href="img/9.png"/>
<image clip-path="url(#c9_10)" preserveAspectRatio="none" x="331" y="710" width="71" height="91" xlink:href="img/10.png"/>
<image clip-path="url(#ca_10)" preserveAspectRatio="none" x="419" y="710" width="72" height="91" xlink:href="img/11.png"/>
<image clip-path="url(#cb_10)" preserveAspectRatio="none" x="508" y="710" width="71" height="91" xlink:href="img/12.png"/>
<image clip-path="url(#cc_10)" preserveAspectRatio="none" x="596" y="710" width="72" height="91" xlink:href="img/13.png"/>
<image clip-path="url(#cd_10)" preserveAspectRatio="none" x="685" y="710" width="72" height="91" xlink:href="img/14.png"/>
<image clip-path="url(#ce_10)" preserveAspectRatio="none" x="773" y="710" width="68" height="91" xlink:href="img/15.png"/>
<image clip-path="url(#cf_10)" preserveAspectRatio="none" x="146" y="54" width="120" height="28" xlink:href="img/16.png"/>
</svg>