<?xml version="1.0" encoding="UTF-8" standalone="no"?>
<!DOCTYPE svg PUBLIC "-//W3C//DTD SVG 1.1//EN"
"http://www.w3.org/Graphics/SVG/1.1/DTD/svg11.dtd">
<svg viewBox="0 0 935 1210" version="1.1" xmlns="http://www.w3.org/2000/svg" xmlns:xlink="http://www.w3.org/1999/xlink">
<defs>
<clipPath id="c0_60"><path d="M617,492.2V466.4H751.1v25.8Z"/></clipPath>
<clipPath id="c1_60"><path d="M154.3,705.2v-139H378.1v139Z"/></clipPath>
<clipPath id="c2_60"><path d="M56.5,1053V380h80.8v673Z"/></clipPath>
<clipPath id="c3_60"><path d="M206.9,968.9v-139H430.7v139Z"/></clipPath>
<clipPath id="c4_60"><path d="M150.5,1049v-29.7H282.3V1049Z"/></clipPath>
<clipPath id="c5_60"><path d="M600.9,417.3V402.4h17.9v14.9Z"/></clipPath>
<clipPath id="c6_60"><path d="M602.6,94.6v-54H769.8v54Z"/></clipPath>
<clipPath id="c7_60"><path d="M120.7,96.8V38.3h432V96.8Z"/></clipPath>
<clipPath id="c8_60"><path d="M679.3,782.5V753.1H816.1v29.4Z"/></clipPath>
</defs>
<image clip-path="url(#c0_60)" preserveAspectRatio="none" x="617" y="466" width="134" height="26" xlink:href="img/1.png"/>
<image clip-path="url(#c1_60)" preserveAspectRatio="none" x="154" y="566" width="224" height="139" xlink:href="img/2.png"/>
<image clip-path="url(#c2_60)" preserveAspectRatio="none" x="57" y="380" width="80" height="673" xlink:href="img/3.png"/>
<image clip-path="url(#c3_60)" preserveAspectRatio="none" x="207" y="830" width="224" height="139" xlink:href="img/4.png"/>
<image clip-path="url(#c4_60)" preserveAspectRatio="none" x="150" y="1019" width="132" height="30" xlink:href="img/5.png"/>
<image clip-path="url(#c5_60)" preserveAspectRatio="none" x="601" y="402" width="18" height="15" xlink:href="img/6.png"/>
<image clip-path="url(#c6_60)" preserveAspectRatio="none" x="603" y="41" width="167" height="54" xlink:href="img/7.png"/>
<image clip-path="url(#c7_60)" preserveAspectRatio="none" x="121" y="38" width="432" height="59" xlink:href="img/8.png"/>
<image clip-path="url(#c8_60)" preserveAspectRatio="none" x="679" y="753" width="137" height="29" xlink:href="img/9.png"/>
</svg>