<?xml version="1.0" encoding="UTF-8" standalone="no"?>
<!DOCTYPE svg PUBLIC "-//W3C//DTD SVG 1.1//EN"
"http://www.w3.org/Graphics/SVG/1.1/DTD/svg11.dtd">
<svg viewBox="0 0 935 1210" version="1.1" xmlns="http://www.w3.org/2000/svg" xmlns:xlink="http://www.w3.org/1999/xlink">
<defs>
<clipPath id="c0_46"><path d="M311.5,714V668.2H623.4V714Z"/></clipPath>
<clipPath id="c1_46"><path d="M238.9,854V825.5H608.3V854Z"/></clipPath>
<clipPath id="c2_46"><path d="M333.8,888.9V863.2H513.5v25.7Z"/></clipPath>
<clipPath id="c3_46"><path d="M230.2,921.9V898.1H617.1v23.8Z"/></clipPath>
<clipPath id="c4_46"><path d="M297.7,961.4V931.2H549.8v30.2Z"/></clipPath>
<clipPath id="c5_46"><path d="M192.7,998.2V970.7h462v27.5Z"/></clipPath>
<style type="text/css"><![CDATA[
.g0_46{
}
]]></style>
</defs>
<image clip-path="url(#c0_46)" preserveAspectRatio="none" x="311" y="668" width="389" height="46" xlink:href="img/1.png"/>
<path d="M55.2,117.5H97v-1.1H55.2v1.1Z" class="g0_46"/>
<path d="M97,117.5H247.3v-1.1H97v1.1Z" class="g0_46"/>
<path d="M409.4,519.7H649.6V519H409.4v.7Z" class="g0_46"/>
<image clip-path="url(#c1_46)" preserveAspectRatio="none" x="239" y="826" width="369" height="28" xlink:href="img/2.png"/>
<image clip-path="url(#c2_46)" preserveAspectRatio="none" x="334" y="863" width="179" height="26" xlink:href="img/3.png"/>
<image clip-path="url(#c3_46)" preserveAspectRatio="none" x="230" y="898" width="387" height="24" xlink:href="img/4.png"/>
<image clip-path="url(#c4_46)" preserveAspectRatio="none" x="298" y="931" width="252" height="30" xlink:href="img/5.png"/>
<image clip-path="url(#c5_46)" preserveAspectRatio="none" x="193" y="971" width="462" height="27" xlink:href="img/6.png"/>
</svg>