<?xml version="1.0" encoding="UTF-8" standalone="no"?>
<!DOCTYPE svg PUBLIC "-//W3C//DTD SVG 1.1//EN"
"http://www.w3.org/Graphics/SVG/1.1/DTD/svg11.dtd">
<svg viewBox="0 0 935 1210" version="1.1" xmlns="http://www.w3.org/2000/svg" xmlns:xlink="http://www.w3.org/1999/xlink">
<defs>
<clipPath id="c0_40"><path d="M342.4,967.3V709.1H592.2V967.3Z"/></clipPath>
<clipPath id="c1_40"><path d="M55.2,622.6V323.9H214.8V622.6Z"/></clipPath>
<clipPath id="c2_40"><path d="M0,1210V0H935V1210Z"/></clipPath>
<clipPath id="c3_40"><path d="M331,581.3V364.7H572.8V581.3Z"/></clipPath>
<clipPath id="c4_40"><path d="M687.7,559.2V388.1H880.2V559.2Z"/></clipPath>
<style type="text/css"><![CDATA[
.g0_40{
}
.g1_40{
fill: #F07F09;
}
]]></style>
</defs>
<image clip-path="url(#c0_40)" preserveAspectRatio="none" x="342" y="709" width="250" height="258" xlink:href="img/1.jpg"/>
<path d="M55.2,78.3h44V77.2h-44v1.1Z" class="g0_40"/>
<path d="M99.9,78.3H266V77.2H99.9v1.1Z" class="g0_40"/>
<image clip-path="url(#c1_40)" preserveAspectRatio="none" x="55" y="324" width="160" height="299" xlink:href="img/2.png"/>
<image clip-path="url(#c2_40)" preserveAspectRatio="none" x="104" y="600" width="66" height="24" xlink:href="img/3.png"/>
<path d="M164.5,603.5l-52.8,5.2l.3,3l52.8,-5.2Zm-45,-.8l-10.7,7.8l12,5.5c.8,.4,1.7,0,2.1,-.7c.3,-.8,0,-1.7,-.8,-2.1l-9.6,-4.4l.2,2.6l8.6,-6.2c.7,-.5,.9,-1.4,.4,-2.1c-.5,-.7,-1.5,-.8,-2.2,-.4Z" class="g1_40"/>
<image clip-path="url(#c3_40)" preserveAspectRatio="none" x="331" y="365" width="242" height="216" xlink:href="img/4.jpg"/>
<image clip-path="url(#c4_40)" preserveAspectRatio="none" x="688" y="388" width="192" height="171" xlink:href="img/5.jpg"/>
<image clip-path="url(#c2_40)" preserveAspectRatio="none" x="824" y="517" width="35" height="37" xlink:href="img/6.png"/>
<path d="M851.9,546.3L829.8,522.7l2.2,-2.1l22.1,23.6Zm-20.1,-14l-3,-12.9l12.7,3.8c.8,.3,1.3,1.1,1,1.9c-.2,.8,-1.1,1.3,-1.9,1.1l-10.1,-3.1l1.9,-1.8l2.3,10.4c.2,.8,-.3,1.6,-1.1,1.8c-.8,.2,-1.7,-.3,-1.8,-1.2Z" class="g0_40"/>
</svg>