<?xml version="1.0" encoding="UTF-8" standalone="no"?>
<!DOCTYPE svg PUBLIC "-//W3C//DTD SVG 1.1//EN"
"http://www.w3.org/Graphics/SVG/1.1/DTD/svg11.dtd">
<svg viewBox="0 0 935 1210" version="1.1" xmlns="http://www.w3.org/2000/svg" xmlns:xlink="http://www.w3.org/1999/xlink">
<defs>
<clipPath id="c0_24"><path d="M577.5,271.3V109.7H755.6V271.3Z"/></clipPath>
<clipPath id="c1_24"><path d="M311.7,257.9V110.5H558V257.9Z"/></clipPath>
<clipPath id="c2_24"><path d="M55,258.2V109.7H269.5V258.2Z"/></clipPath>
<clipPath id="c3_24"><path d="M55,476V444.2H320.1V476Z"/></clipPath>
<clipPath id="c4_24"><path d="M329.2,505.8V430h66v75.8Z"/></clipPath>
<clipPath id="c5_24"><path d="M55,572.9V505.8H525.7v67.1Z"/></clipPath>
<clipPath id="c6_24"><path d="M541.6,604.4V493.3H701.1V604.4Z"/></clipPath>
<clipPath id="c7_24"><path d="M55,641.2V605H566.5v36.2Z"/></clipPath>
<clipPath id="c8_24"><path d="M577.5,721V600h90.1V721Z"/></clipPath>
<clipPath id="c9_24"><path d="M55,796.7V727.5H555.5v69.2Z"/></clipPath>
<clipPath id="ca_24"><path d="M577.5,824.2V727.5h132v96.7Z"/></clipPath>
<clipPath id="cb_24"><path d="M55,908.6v-22H189.1v22Z"/></clipPath>
<clipPath id="cc_24"><path d="M118.3,1142.7V894.1h96.8v248.6Z"/></clipPath>
<style type="text/css"><![CDATA[
.g0_24{
fill: #F07C03;
}
.g1_24{
fill: #FFFFFF;
}
.g2_24{
fill: none;
stroke: #000000;
stroke-width: 0.763;
stroke-linecap: butt;
stroke-linejoin: round;
}
]]></style>
</defs>
<image clip-path="url(#c0_24)" preserveAspectRatio="none" x="578" y="110" width="178" height="161" xlink:href="img/1.png"/>
<image clip-path="url(#c1_24)" preserveAspectRatio="none" x="312" y="111" width="246" height="147" xlink:href="img/2.png"/>
<image clip-path="url(#c2_24)" preserveAspectRatio="none" x="55" y="110" width="215" height="148" xlink:href="img/3.png"/>
<path d="M201.7,258v23.6h-1.2V258Zm4,22l-4.6,9.2L196.5,280Z" class="g0_24"/>
<path d="M55,429.6H269.5V288.8H55V429.6Z" class="g1_24"/>
<path d="M55,288.8H269.4V429.5H55V288.8Z" class="g2_24"/>
<image clip-path="url(#c3_24)" preserveAspectRatio="none" x="55" y="444" width="265" height="32" xlink:href="img/4.png"/>
<image clip-path="url(#c4_24)" preserveAspectRatio="none" x="329" y="430" width="66" height="76" xlink:href="img/5.jpg"/>
<image clip-path="url(#c5_24)" preserveAspectRatio="none" x="55" y="506" width="471" height="67" xlink:href="img/6.png"/>
<image clip-path="url(#c6_24)" preserveAspectRatio="none" x="542" y="493" width="159" height="111" xlink:href="img/7.jpg"/>
<image clip-path="url(#c7_24)" preserveAspectRatio="none" x="55" y="605" width="512" height="36" xlink:href="img/8.png"/>
<image clip-path="url(#c8_24)" preserveAspectRatio="none" x="578" y="600" width="90" height="121" xlink:href="img/9.jpg"/>
<image clip-path="url(#c9_24)" preserveAspectRatio="none" x="55" y="727" width="501" height="70" xlink:href="img/10.png"/>
<image clip-path="url(#ca_24)" preserveAspectRatio="none" x="578" y="727" width="131" height="97" xlink:href="img/11.jpg"/>
<image clip-path="url(#cb_24)" preserveAspectRatio="none" x="55" y="887" width="134" height="22" xlink:href="img/12.png"/>
<image clip-path="url(#cc_24)" preserveAspectRatio="none" x="118" y="894" width="97" height="249" xlink:href="img/13.png"/>
</svg>