<?xml version="1.0" encoding="UTF-8" standalone="no"?>
<!DOCTYPE svg PUBLIC "-//W3C//DTD SVG 1.1//EN"
"http://www.w3.org/Graphics/SVG/1.1/DTD/svg11.dtd">
<svg viewBox="0 0 935 1210" version="1.1" xmlns="http://www.w3.org/2000/svg" xmlns:xlink="http://www.w3.org/1999/xlink">
<defs>
<clipPath id="c0_24"><path d="M57,539.7V507.6H241.5v32.1Z"/></clipPath>
<clipPath id="c1_24"><path d="M180.3,624.9v-102H322.4v102Z"/></clipPath>
<clipPath id="c2_24"><path d="M54.9,792.5v-32H210.8v32Z"/></clipPath>
<clipPath id="c3_24"><path d="M104,1127V777.5h65.8V1127Z"/></clipPath>
<clipPath id="c4_24"><path d="M699.8,763.1V732.2H815.5v30.9Z"/></clipPath>
<clipPath id="c5_24"><path d="M59.8,356.2V313.8H173.3v42.4Z"/></clipPath>
<clipPath id="c6_24"><path d="M152.5,469.9V326.6H342.7V469.9Z"/></clipPath>
<clipPath id="c7_24"><path d="M521.4,1055.5V939.8H880v115.7Z"/></clipPath>
<clipPath id="c8_24"><path d="M64.6,157.3V114.9H180.4v42.4Z"/></clipPath>
<clipPath id="c9_24"><path d="M145.1,239.2v-102H299.7v102Z"/></clipPath>
<clipPath id="ca_24"><path d="M693.4,147.9V115.8H873.3v32.1Z"/></clipPath>
<clipPath id="cb_24"><path d="M775.3,212.9V131.5h97.4v81.4Z"/></clipPath>
<clipPath id="cc_24"><path d="M0,1210V0H935V1210Z"/></clipPath>
<clipPath id="cd_24"><path d="M335.5,158.2V115.8H536v42.4Z"/></clipPath>
<clipPath id="ce_24"><path d="M502.9,237.5v-102H657.6v102Z"/></clipPath>
<clipPath id="cf_24"><path d="M55,668.1v-33H322.7v33Z"/></clipPath>
<clipPath id="cg_24"><path d="M530.1,850.1V822.9H690.3v27.2Z"/></clipPath>
<clipPath id="ch_24"><path d="M689.3,872.3V850.1h98.1v22.2Z"/></clipPath>
<style type="text/css"><![CDATA[
.g0_24{
fill: none;
stroke: #F07F09;
stroke-width: 3.055;
stroke-linecap: butt;
stroke-linejoin: round;
}
.g1_24{
fill: #F07F09;
}
.g2_24{
fill: none;
stroke: #000000;
stroke-width: 1.145;
stroke-linecap: butt;
stroke-linejoin: round;
}
]]></style>
</defs>
<image clip-path="url(#c0_24)" preserveAspectRatio="none" x="57" y="508" width="184" height="32" xlink:href="img/1.png"/>
<image clip-path="url(#c1_24)" preserveAspectRatio="none" x="180" y="523" width="142" height="102" xlink:href="img/2.png"/>
<image clip-path="url(#c2_24)" preserveAspectRatio="none" x="55" y="760" width="156" height="33" xlink:href="img/3.png"/>
<image clip-path="url(#c3_24)" preserveAspectRatio="none" x="104" y="777" width="66" height="350" xlink:href="img/4.png"/>
<image clip-path="url(#c4_24)" preserveAspectRatio="none" x="700" y="732" width="116" height="31" xlink:href="img/5.png"/>
<image clip-path="url(#c5_24)" preserveAspectRatio="none" x="60" y="314" width="113" height="42" xlink:href="img/6.png"/>
<image clip-path="url(#c6_24)" preserveAspectRatio="none" x="152" y="327" width="191" height="143" xlink:href="img/7.png"/>
<image clip-path="url(#c7_24)" preserveAspectRatio="none" x="521" y="940" width="359" height="116" xlink:href="img/8.png"/>
<image clip-path="url(#c8_24)" preserveAspectRatio="none" x="65" y="115" width="115" height="42" xlink:href="img/9.png"/>
<image clip-path="url(#c9_24)" preserveAspectRatio="none" x="145" y="137" width="155" height="102" xlink:href="img/10.png"/>
<image clip-path="url(#ca_24)" preserveAspectRatio="none" x="693" y="116" width="180" height="32" xlink:href="img/11.png"/>
<image clip-path="url(#cb_24)" preserveAspectRatio="none" x="775" y="132" width="98" height="81" xlink:href="img/12.png"/>
<image clip-path="url(#cc_24)" preserveAspectRatio="none" x="738" y="136" width="55" height="58" xlink:href="img/13.png"/>
<path d="M744.9,139.9l28.5,31.3" class="g0_24"/>
<path fill-rule="evenodd" d="M775.4,173.5l-12.6,-4c-.8,-.2,-1.2,-1.1,-1,-1.9c.3,-.8,1.1,-1.3,1.9,-1l7.6,2.4l-1.6,-7.8c-.2,-.9,.3,-1.7,1.2,-1.8c.8,-.2,1.6,.3,1.8,1.1Z" class="g1_24"/>
<image clip-path="url(#cd_24)" preserveAspectRatio="none" x="336" y="116" width="200" height="42" xlink:href="img/14.png"/>
<image clip-path="url(#ce_24)" preserveAspectRatio="none" x="503" y="136" width="155" height="101" xlink:href="img/15.png"/>
<image clip-path="url(#cf_24)" preserveAspectRatio="none" x="55" y="635" width="268" height="33" xlink:href="img/16.png"/>
<path d="M517,818.2H878.5v60.7H517V818.2Z" class="g2_24"/>
<image clip-path="url(#cg_24)" preserveAspectRatio="none" x="530" y="823" width="160" height="27" xlink:href="img/17.png"/>
<image clip-path="url(#ch_24)" preserveAspectRatio="none" x="689" y="850" width="98" height="22" xlink:href="img/18.png"/>
</svg>