<?xml version="1.0" encoding="UTF-8" standalone="no"?>
<!DOCTYPE svg PUBLIC "-//W3C//DTD SVG 1.1//EN"
"http://www.w3.org/Graphics/SVG/1.1/DTD/svg11.dtd">
<svg viewBox="0 0 935 1210" version="1.1" xmlns="http://www.w3.org/2000/svg" xmlns:xlink="http://www.w3.org/1999/xlink">
<defs>
<clipPath id="c0_22"><path d="M55,85.9V55H255.5V85.9Z"/></clipPath>
<clipPath id="c1_22"><path d="M55,177.7v-31H419.4v31Z"/></clipPath>
<clipPath id="c2_22"><path d="M52.8,722.3V691.4H285.3v30.9Z"/></clipPath>
<clipPath id="c3_22"><path d="M262.5,878.1V701.8h77.1V878.1Z"/></clipPath>
<clipPath id="c4_22"><path d="M63.4,255.7V223.6H207.8v32.1Z"/></clipPath>
<clipPath id="c5_22"><path d="M111.2,386.5V239.8H243V386.5Z"/></clipPath>
<clipPath id="c6_22"><path d="M0,1210V0H935V1210Z"/></clipPath>
<clipPath id="c7_22"><path d="M435.5,93.3v-33H584.6v33Z"/></clipPath>
<clipPath id="c8_22"><path d="M57.3,439.8V407.7H264.7v32.1Z"/></clipPath>
<clipPath id="c9_22"><path d="M207.1,683.2V422H329.3V683.2Z"/></clipPath>
<clipPath id="ca_22"><path d="M611,670.3V524.4H880V670.3Z"/></clipPath>
<clipPath id="cb_22"><path d="M620.3,504.9V462.1H879.4v42.8Z"/></clipPath>
<clipPath id="cc_22"><path d="M534.7,133.5V102.9H673.8v30.6Z"/></clipPath>
<clipPath id="cd_22"><path d="M699.6,133.4V102.8H879.8v30.6Z"/></clipPath>
<clipPath id="ce_22"><path d="M55,1030.9v-28.2H206.3v28.2Z"/></clipPath>
<clipPath id="cf_22"><path d="M219.8,1030.9v-28.2h118v28.2Z"/></clipPath>
<clipPath id="cg_22"><path d="M351.4,1030.9v-28.2H465.3v28.2Z"/></clipPath>
<clipPath id="ch_22"><path d="M55,133.5V100.2H174.2v33.3Z"/></clipPath>
<clipPath id="ci_22"><path d="M55,934.7v-33H311.7v33Z"/></clipPath>
<style type="text/css"><![CDATA[
.g0_22{
fill: none;
stroke: #F07F09;
stroke-width: 3.055;
stroke-linecap: butt;
stroke-linejoin: round;
}
.g1_22{
fill: #F07F09;
}
]]></style>
</defs>
<image clip-path="url(#c0_22)" preserveAspectRatio="none" x="55" y="55" width="201" height="31" xlink:href="img/1.png"/>
<image clip-path="url(#c1_22)" preserveAspectRatio="none" x="55" y="147" width="364" height="31" xlink:href="img/2.png"/>
<image clip-path="url(#c2_22)" preserveAspectRatio="none" x="53" y="691" width="232" height="31" xlink:href="img/3.png"/>
<image clip-path="url(#c3_22)" preserveAspectRatio="none" x="262" y="702" width="78" height="184" xlink:href="img/4.png"/>
<image clip-path="url(#c4_22)" preserveAspectRatio="none" x="63" y="224" width="145" height="32" xlink:href="img/5.png"/>
<image clip-path="url(#c5_22)" preserveAspectRatio="none" x="111" y="240" width="132" height="146" xlink:href="img/6.png"/>
<image clip-path="url(#c6_22)" preserveAspectRatio="none" x="93" y="239" width="38" height="52" xlink:href="img/7.png"/>
<path d="M99.8,242.8l11.9,25.6" class="g0_22"/>
<path fill-rule="evenodd" d="M112.9,271.1l-10.8,-7.5c-.7,-.5,-.9,-1.5,-.4,-2.2c.5,-.7,1.4,-.8,2.1,-.3l6.6,4.5l.7,-8c.1,-.8,.8,-1.4,1.7,-1.3c.8,0,1.4,.8,1.4,1.6Z" class="g1_22"/>
<image clip-path="url(#c7_22)" preserveAspectRatio="none" x="435" y="60" width="150" height="33" xlink:href="img/8.png"/>
<image clip-path="url(#c8_22)" preserveAspectRatio="none" x="57" y="408" width="208" height="32" xlink:href="img/9.png"/>
<image clip-path="url(#c9_22)" preserveAspectRatio="none" x="207" y="422" width="122" height="261" xlink:href="img/10.png"/>
<image clip-path="url(#ca_22)" preserveAspectRatio="none" x="611" y="524" width="269" height="146" xlink:href="img/11.png"/>
<image clip-path="url(#cb_22)" preserveAspectRatio="none" x="620" y="462" width="259" height="43" xlink:href="img/12.png"/>
<image clip-path="url(#cc_22)" preserveAspectRatio="none" x="535" y="103" width="139" height="30" xlink:href="img/13.png"/>
<image clip-path="url(#cd_22)" preserveAspectRatio="none" x="700" y="103" width="180" height="30" xlink:href="img/14.png"/>
<image clip-path="url(#ce_22)" preserveAspectRatio="none" x="55" y="1003" width="151" height="28" xlink:href="img/15.png"/>
<image clip-path="url(#cf_22)" preserveAspectRatio="none" x="220" y="1003" width="118" height="28" xlink:href="img/16.png"/>
<image clip-path="url(#cg_22)" preserveAspectRatio="none" x="351" y="1003" width="114" height="28" xlink:href="img/17.png"/>
<image clip-path="url(#ch_22)" preserveAspectRatio="none" x="55" y="100" width="119" height="33" xlink:href="img/18.png"/>
<image clip-path="url(#ci_22)" preserveAspectRatio="none" x="55" y="902" width="257" height="33" xlink:href="img/19.png"/>
</svg>