<?xml version="1.0" encoding="UTF-8" standalone="no"?>
<!DOCTYPE svg PUBLIC "-//W3C//DTD SVG 1.1//EN"
"http://www.w3.org/Graphics/SVG/1.1/DTD/svg11.dtd">
<svg viewBox="0 0 935 1210" version="1.1" xmlns="http://www.w3.org/2000/svg" xmlns:xlink="http://www.w3.org/1999/xlink">
<defs>
<clipPath id="c0_126"><path d="M387,801.6V775.7h26v25.9Z"/></clipPath>
<clipPath id="c1_126"><path d="M712.7,801.2V775.3h26v25.9Z"/></clipPath>
<clipPath id="c2_126"><path d="M431,824.3v-26h26v26Z"/></clipPath>
<clipPath id="c3_126"><path d="M453.9,824.3v-26h26v26Z"/></clipPath>
<clipPath id="c4_126"><path d="M55,209.8V152.9H435.4v56.9Z"/></clipPath>
<clipPath id="c5_126"><path d="M55,259.2V202.4H693v56.8Z"/></clipPath>
<clipPath id="c6_126"><path d="M55,392.6v-121H523.4v121Z"/></clipPath>
<clipPath id="c7_126"><path d="M55,535.3V478.5H399.7v56.8Z"/></clipPath>
<clipPath id="c8_126"><path d="M55.5,694.8v-121H843.8v121Z"/></clipPath>
<style type="text/css"><![CDATA[
.g0_126{
}
]]></style>
</defs>
<path d="M55,77.4H385.4V77H55v.4Z" class="g0_126"/>
<path d="M555.1,1144.4h89.1v-.4H555.1v.4Z" class="g0_126"/>
<image clip-path="url(#c0_126)" preserveAspectRatio="none" x="387" y="776" width="26" height="26" xlink:href="img/1.jpg"/>
<image clip-path="url(#c1_126)" preserveAspectRatio="none" x="713" y="775" width="26" height="26" xlink:href="img/2.jpg"/>
<image clip-path="url(#c2_126)" preserveAspectRatio="none" x="431" y="798" width="26" height="26" xlink:href="img/3.jpg"/>
<image clip-path="url(#c3_126)" preserveAspectRatio="none" x="454" y="798" width="26" height="26" xlink:href="img/4.jpg"/>
<image clip-path="url(#c4_126)" preserveAspectRatio="none" x="55" y="153" width="380" height="57" xlink:href="img/5.png"/>
<image clip-path="url(#c5_126)" preserveAspectRatio="none" x="55" y="202" width="638" height="57" xlink:href="img/6.png"/>
<image clip-path="url(#c6_126)" preserveAspectRatio="none" x="55" y="272" width="468" height="121" xlink:href="img/7.png"/>
<image clip-path="url(#c7_126)" preserveAspectRatio="none" x="55" y="478" width="345" height="57" xlink:href="img/8.png"/>
<image clip-path="url(#c8_126)" preserveAspectRatio="none" x="55" y="574" width="789" height="121" xlink:href="img/9.png"/>
</svg>