<?xml version="1.0" encoding="UTF-8" standalone="no"?>
<!DOCTYPE svg PUBLIC "-//W3C//DTD SVG 1.1//EN"
"http://www.w3.org/Graphics/SVG/1.1/DTD/svg11.dtd">
<svg viewBox="0 0 935 1210" version="1.1" xmlns="http://www.w3.org/2000/svg" xmlns:xlink="http://www.w3.org/1999/xlink">
<defs>
<clipPath id="c0_67"><path d="M333,314.3V165.4H594.3V314.3Z"/></clipPath>
<clipPath id="c1_67"><path d="M267,1148V845.1H668.8V1148Z"/></clipPath>
<clipPath id="c2_67"><path d="M352.4,612.9V436.5H636.6V612.9Z"/></clipPath>
<clipPath id="c3_67"><path d="M617.7,1090.7V1069h21.7v21.7Z"/></clipPath>
<style type="text/css"><![CDATA[
.g0_67{
fill: none;
stroke: #FF0000;
stroke-width: 3.939;
stroke-linecap: butt;
stroke-linejoin: round;
}
]]></style>
</defs>
<image clip-path="url(#c0_67)" preserveAspectRatio="none" x="333" y="165" width="261" height="149" xlink:href="img/1.png"/>
<path d="M539.9,526.9c0,-8.6,5.6,-15.5,12.6,-15.5c7,0,12.6,6.9,12.6,15.5c0,8.5,-5.6,15.4,-12.6,15.4c-7,0,-12.6,-6.9,-12.6,-15.4Z" class="g0_67"/>
<image clip-path="url(#c1_67)" preserveAspectRatio="none" x="267" y="845" width="402" height="303" xlink:href="img/2.png"/>
<image clip-path="url(#c2_67)" preserveAspectRatio="none" x="352" y="436" width="285" height="177" xlink:href="img/3.jpg"/>
<image clip-path="url(#c3_67)" preserveAspectRatio="none" x="618" y="1069" width="21" height="22" xlink:href="img/4.png"/>
</svg>