<?xml version="1.0" encoding="UTF-8" standalone="no"?>
<!DOCTYPE svg PUBLIC "-//W3C//DTD SVG 1.1//EN"
"http://www.w3.org/Graphics/SVG/1.1/DTD/svg11.dtd">
<svg viewBox="0 0 935 1210" version="1.1" xmlns="http://www.w3.org/2000/svg" xmlns:xlink="http://www.w3.org/1999/xlink">
<defs>
<clipPath id="c0_139"><path d="M156.6,978.4V863.8H879.8V978.4Z"/></clipPath>
<clipPath id="c1_139"><path d="M55,213V192.9H172.3V213Z"/></clipPath>
<clipPath id="c2_139"><path d="M412,406.4v-121H882.3v121Z"/></clipPath>
<clipPath id="c3_139"><path d="M57,416.8V396.6H171.6v20.2Z"/></clipPath>
<clipPath id="c4_139"><path d="M55.7,563.1V543H279.4v20.1Z"/></clipPath>
<clipPath id="c5_139"><path d="M55,765.3V673.6H860.8v91.7Z"/></clipPath>
<clipPath id="c6_139"><path d="M55,1133.8V996.3H660.9v137.5Z"/></clipPath>
</defs>
<image clip-path="url(#c0_139)" preserveAspectRatio="none" x="157" y="864" width="723" height="114" xlink:href="img/1.png"/>
<image clip-path="url(#c1_139)" preserveAspectRatio="none" x="55" y="193" width="117" height="20" xlink:href="img/2.png"/>
<image clip-path="url(#c2_139)" preserveAspectRatio="none" x="412" y="285" width="470" height="121" xlink:href="img/3.png"/>
<image clip-path="url(#c3_139)" preserveAspectRatio="none" x="57" y="397" width="115" height="20" xlink:href="img/4.png"/>
<image clip-path="url(#c4_139)" preserveAspectRatio="none" x="56" y="543" width="223" height="20" xlink:href="img/5.png"/>
<image clip-path="url(#c5_139)" preserveAspectRatio="none" x="55" y="674" width="806" height="91" xlink:href="img/6.png"/>
<image clip-path="url(#c6_139)" preserveAspectRatio="none" x="55" y="996" width="606" height="138" xlink:href="img/7.png"/>
</svg>