<?xml version="1.0" encoding="UTF-8" standalone="no"?>
<!DOCTYPE svg PUBLIC "-//W3C//DTD SVG 1.1//EN"
"http://www.w3.org/Graphics/SVG/1.1/DTD/svg11.dtd">
<svg viewBox="0 0 935 1210" version="1.1" xmlns="http://www.w3.org/2000/svg" xmlns:xlink="http://www.w3.org/1999/xlink">
<defs>
<clipPath id="c0_103"><path d="M55.2,369.4V278.1h474v91.3Z"/></clipPath>
<clipPath id="c1_103"><path d="M55.2,497.8V462.7H340.7v35.1Z"/></clipPath>
<clipPath id="c2_103"><path d="M55.2,703.7V661.9H427v41.8Z"/></clipPath>
<clipPath id="c3_103"><path d="M527.1,695.4V667.9H639.3v27.5Z"/></clipPath>
<clipPath id="c4_103"><path d="M55.2,1035.8V754.3H313.7v281.5Z"/></clipPath>
<clipPath id="c5_103"><path d="M448.7,812V744.9h362V812Z"/></clipPath>
<clipPath id="c6_103"><path d="M442.7,847.3V819.9H626.2v27.4Z"/></clipPath>
<clipPath id="c7_103"><path d="M606.8,887V833.2h48.3V887Z"/></clipPath>
<clipPath id="c8_103"><path d="M442.7,1004.7V936.6H829.8v68.1Z"/></clipPath>
<clipPath id="c9_103"><path d="M442.7,1036.8v-27.5H626.3v27.5Z"/></clipPath>
<style type="text/css"><![CDATA[
.g0_103{
fill: #FFFFFF;
}
.g1_103{
fill: none;
stroke: #000000;
stroke-width: 1.145;
stroke-linecap: butt;
stroke-linejoin: round;
}
]]></style>
</defs>
<path d="M430.7,941H802V906H430.7v35Z" class="g0_103"/>
<image clip-path="url(#c0_103)" preserveAspectRatio="none" x="55" y="278" width="474" height="91" xlink:href="img/1.jpg"/>
<image clip-path="url(#c1_103)" preserveAspectRatio="none" x="55" y="463" width="286" height="35" xlink:href="img/2.png"/>
<image clip-path="url(#c2_103)" preserveAspectRatio="none" x="55" y="662" width="372" height="42" xlink:href="img/3.png"/>
<image clip-path="url(#c3_103)" preserveAspectRatio="none" x="527" y="668" width="112" height="27" xlink:href="img/4.png"/>
<image clip-path="url(#c4_103)" preserveAspectRatio="none" x="55" y="754" width="259" height="282" xlink:href="img/5.png"/>
<image clip-path="url(#c5_103)" preserveAspectRatio="none" x="449" y="745" width="362" height="67" xlink:href="img/6.png"/>
<image clip-path="url(#c6_103)" preserveAspectRatio="none" x="443" y="820" width="183" height="27" xlink:href="img/7.png"/>
<image clip-path="url(#c7_103)" preserveAspectRatio="none" x="607" y="833" width="48" height="54" xlink:href="img/8.png"/>
<path d="M442.2,898.7H813.5" class="g1_103"/>
<image clip-path="url(#c8_103)" preserveAspectRatio="none" x="443" y="937" width="387" height="68" xlink:href="img/9.png"/>
<image clip-path="url(#c9_103)" preserveAspectRatio="none" x="443" y="1009" width="183" height="28" xlink:href="img/10.png"/>
</svg>