<?xml version="1.0" encoding="UTF-8" standalone="no"?>
<!DOCTYPE svg PUBLIC "-//W3C//DTD SVG 1.1//EN"
"http://www.w3.org/Graphics/SVG/1.1/DTD/svg11.dtd">
<svg viewBox="0 0 935 1210" version="1.1" xmlns="http://www.w3.org/2000/svg" xmlns:xlink="http://www.w3.org/1999/xlink">
<defs>
<clipPath id="c0_144"><path d="M55.2,1052.7V956.5h123v96.2Z"/></clipPath>
<clipPath id="c1_144"><path d="M195.6,1052.7V956.5h123v96.2Z"/></clipPath>
<clipPath id="c2_144"><path d="M336,1052.7V956.5H459v96.2Z"/></clipPath>
<clipPath id="c3_144"><path d="M476.4,1052.7V956.5h123v96.2Z"/></clipPath>
<clipPath id="c4_144"><path d="M616.8,1052.7V956.5h123v96.2Z"/></clipPath>
<clipPath id="c5_144"><path d="M757.2,1052.7V956.5h123v96.2Z"/></clipPath>
<clipPath id="c6_144"><path d="M108.8,477.8V439.9H534.2v37.9Z"/></clipPath>
<clipPath id="c7_144"><path d="M56,453.8V415.9H481.3v37.9Z"/></clipPath>
<clipPath id="c8_144"><path d="M332.4,636.9V599.1H773v37.8Z"/></clipPath>
<clipPath id="c9_144"><path d="M386,659.6V621.7H826.6v37.9Z"/></clipPath>
<style type="text/css"><![CDATA[
.g0_144{
}
]]></style>
</defs>
<path d="M55.2,1096.1H175.8v-.7H55.2v.7Z" class="g0_144"/>
<image clip-path="url(#c0_144)" preserveAspectRatio="none" x="55" y="956" width="123" height="97" xlink:href="img/1.jpg"/>
<image clip-path="url(#c1_144)" preserveAspectRatio="none" x="196" y="956" width="123" height="97" xlink:href="img/2.jpg"/>
<image clip-path="url(#c2_144)" preserveAspectRatio="none" x="336" y="956" width="123" height="97" xlink:href="img/3.jpg"/>
<image clip-path="url(#c3_144)" preserveAspectRatio="none" x="476" y="956" width="123" height="97" xlink:href="img/4.jpg"/>
<image clip-path="url(#c4_144)" preserveAspectRatio="none" x="617" y="956" width="123" height="97" xlink:href="img/5.jpg"/>
<image clip-path="url(#c5_144)" preserveAspectRatio="none" x="757" y="956" width="123" height="97" xlink:href="img/6.jpg"/>
<image clip-path="url(#c6_144)" preserveAspectRatio="none" x="109" y="440" width="425" height="38" xlink:href="img/7.png"/>
<image clip-path="url(#c7_144)" preserveAspectRatio="none" x="56" y="416" width="425" height="38" xlink:href="img/8.png"/>
<image clip-path="url(#c8_144)" preserveAspectRatio="none" x="332" y="599" width="441" height="38" xlink:href="img/9.png"/>
<image clip-path="url(#c9_144)" preserveAspectRatio="none" x="386" y="622" width="441" height="38" xlink:href="img/10.png"/>
</svg>