<?xml version="1.0" encoding="UTF-8" standalone="no"?>
<!DOCTYPE svg PUBLIC "-//W3C//DTD SVG 1.1//EN"
"http://www.w3.org/Graphics/SVG/1.1/DTD/svg11.dtd">
<svg viewBox="0 0 935 1210" version="1.1" xmlns="http://www.w3.org/2000/svg" xmlns:xlink="http://www.w3.org/1999/xlink">
<defs>
<clipPath id="c0_41"><path d="M235.5,391.4v-147H698.6v147Z"/></clipPath>
<clipPath id="c1_41"><path d="M213.9,819.9V418.7H721.5V819.9Z"/></clipPath>
<clipPath id="c2_41"><path d="M0,1210V0H935V1210Z"/></clipPath>
<clipPath id="c3_41"><path d="M491.7,1034.6v-149h212v149Z"/></clipPath>
<clipPath id="c4_41"><path d="M302.3,1037.6V881.7H490.2v155.9Z"/></clipPath>
<style type="text/css"><![CDATA[
.g0_41{
}
.g1_41{
fill: #F07F09;
}
]]></style>
</defs>
<path d="M55.2,1109.3h220v-.7H55.2v.7Z" class="g0_41"/>
<image clip-path="url(#c0_41)" preserveAspectRatio="none" x="235" y="244" width="464" height="147" xlink:href="img/1.jpg"/>
<image clip-path="url(#c1_41)" preserveAspectRatio="none" x="214" y="419" width="508" height="401" xlink:href="img/2.jpg"/>
<image clip-path="url(#c2_41)" preserveAspectRatio="none" x="232" y="1007" width="68" height="23" xlink:href="img/3.png"/>
<path d="M237,1014.6h55.1v3.1H237Zm46.7,-5.1l11.4,6.7l-11.4,6.6c-.8,.5,-1.7,.2,-2.1,-.5c-.5,-.7,-.2,-1.7,.5,-2.1l9.2,-5.3v2.6l-9.2,-5.3c-.7,-.5,-1,-1.4,-.5,-2.1c.4,-.8,1.3,-1,2.1,-.6Z" class="g1_41"/>
<image clip-path="url(#c3_41)" preserveAspectRatio="none" x="492" y="886" width="212" height="149" xlink:href="img/4.jpg"/>
<image clip-path="url(#c4_41)" preserveAspectRatio="none" x="302" y="882" width="188" height="156" xlink:href="img/5.jpg"/>
</svg>