<?xml version="1.0" encoding="UTF-8" standalone="no"?>
<!DOCTYPE svg PUBLIC "-//W3C//DTD SVG 1.1//EN"
"http://www.w3.org/Graphics/SVG/1.1/DTD/svg11.dtd">
<svg viewBox="0 0 935 1210" version="1.1" xmlns="http://www.w3.org/2000/svg" xmlns:xlink="http://www.w3.org/1999/xlink">
<defs>
<clipPath id="c0_41"><path d="M235.3,389.1v-147H698.4v147Z"/></clipPath>
<clipPath id="c1_41"><path d="M213.7,817.6V416.5H721.3V817.6Z"/></clipPath>
<clipPath id="c2_41"><path d="M0,1210V0H935V1210Z"/></clipPath>
<clipPath id="c3_41"><path d="M491.5,1032.3V883.4h212v148.9Z"/></clipPath>
<clipPath id="c4_41"><path d="M302.1,1035.3V879.5H490v155.8Z"/></clipPath>
<style type="text/css"><![CDATA[
.g0_41{
}
.g1_41{
fill: none;
stroke: #F07F09;
stroke-width: 3.055;
stroke-linecap: butt;
stroke-linejoin: round;
}
.g2_41{
fill: #F07F09;
}
]]></style>
</defs>
<path d="M55,1108.4H275v-.7H55v.7Z" class="g0_41"/>
<image clip-path="url(#c0_41)" preserveAspectRatio="none" x="235" y="242" width="463" height="147" xlink:href="img/1.jpg"/>
<image clip-path="url(#c1_41)" preserveAspectRatio="none" x="214" y="416" width="507" height="402" xlink:href="img/2.jpg"/>
<image clip-path="url(#c2_41)" preserveAspectRatio="none" x="231" y="999" width="81" height="35" xlink:href="img/3.png"/>
<path d="M236.8,1013.9h55" class="g1_41"/>
<path fill-rule="evenodd" d="M294.9,1013.9l-11.5,6.7c-.7,.4,-1.6,.2,-2.1,-.6c-.4,-.7,-.1,-1.6,.6,-2.1l6.9,-4l-6.9,-4c-.7,-.4,-1,-1.4,-.6,-2.1c.5,-.7,1.4,-1,2.1,-.6Z" class="g2_41"/>
<image clip-path="url(#c3_41)" preserveAspectRatio="none" x="491" y="883" width="212" height="149" xlink:href="img/4.jpg"/>
<image clip-path="url(#c4_41)" preserveAspectRatio="none" x="302" y="879" width="188" height="156" xlink:href="img/5.jpg"/>
</svg>