<?xml version="1.0" encoding="UTF-8" standalone="no"?>
<!DOCTYPE svg PUBLIC "-//W3C//DTD SVG 1.1//EN"
"http://www.w3.org/Graphics/SVG/1.1/DTD/svg11.dtd">
<svg viewBox="0 0 935 1210" version="1.1" xmlns="http://www.w3.org/2000/svg" xmlns:xlink="http://www.w3.org/1999/xlink">
<defs>
<clipPath id="c0_31"><path d="M55,872.8V798H661v74.8Z"/></clipPath>
<clipPath id="c1_31"><path d="M55,523.9V370.3H389.6V523.9Z"/></clipPath>
<clipPath id="c2_31"><path d="M677.8,533.9V517.1h47.4v16.8Z"/></clipPath>
<clipPath id="c3_31"><path d="M55,697V647.4H266.1V697Z"/></clipPath>
<clipPath id="c4_31"><path d="M304.9,720.2V697.3h58.8v22.9Z"/></clipPath>
<clipPath id="c5_31"><path d="M55,1005.6v-88H305.3v88Z"/></clipPath>
<clipPath id="c6_31"><path d="M55,1194.6V1056.1H184.8v138.5Z"/></clipPath>
<clipPath id="c7_31"><path d="M55.2,694.6V673.8H413.7v20.8Z"/></clipPath>
<clipPath id="c8_31"><path d="M55,331.1v-99H221.1v99Z"/></clipPath>
</defs>
<image clip-path="url(#c0_31)" preserveAspectRatio="none" x="55" y="798" width="606" height="75" xlink:href="img/1.png"/>
<image clip-path="url(#c1_31)" preserveAspectRatio="none" x="55" y="370" width="335" height="154" xlink:href="img/2.png"/>
<image clip-path="url(#c2_31)" preserveAspectRatio="none" x="678" y="517" width="47" height="17" xlink:href="img/3.png"/>
<image clip-path="url(#c3_31)" preserveAspectRatio="none" x="55" y="647" width="211" height="50" xlink:href="img/4.png"/>
<image clip-path="url(#c4_31)" preserveAspectRatio="none" x="305" y="697" width="59" height="23" xlink:href="img/5.jpg"/>
<image clip-path="url(#c5_31)" preserveAspectRatio="none" x="55" y="918" width="250" height="104" xlink:href="img/6.png"/>
<image clip-path="url(#c6_31)" preserveAspectRatio="none" x="55" y="1056" width="130" height="139" xlink:href="img/7.png"/>
<image clip-path="url(#c7_31)" preserveAspectRatio="none" x="55" y="674" width="359" height="21" xlink:href="img/8.png"/>
<image clip-path="url(#c8_31)" preserveAspectRatio="none" x="55" y="232" width="166" height="99" xlink:href="img/9.jpg"/>
</svg>