<?xml version="1.0" encoding="UTF-8" standalone="no"?>
<!DOCTYPE svg PUBLIC "-//W3C//DTD SVG 1.1//EN"
"http://www.w3.org/Graphics/SVG/1.1/DTD/svg11.dtd">
<svg viewBox="0 0 935 1210" version="1.1" xmlns="http://www.w3.org/2000/svg" xmlns:xlink="http://www.w3.org/1999/xlink">
<defs>
<clipPath id="c0_71"><path d="M361.6,844.6V690.4H545.7V844.6Z"/></clipPath>
<clipPath id="c1_71"><path d="M123.8,122V44.8H351.4V122Z"/></clipPath>
<clipPath id="c2_71"><path d="M395.7,122V33.4h414V122Z"/></clipPath>
<clipPath id="c3_71"><path d="M183.3,260.9V235.7H443.1v25.2Z"/></clipPath>
<clipPath id="c4_71"><path d="M511.6,263.9V232.6H751.4v31.3Z"/></clipPath>
<clipPath id="c5_71"><path d="M271.9,458.7V367.8h390v90.9Z"/></clipPath>
<clipPath id="c6_71"><path d="M243.7,1029.6V952.4H435.4v77.2Z"/></clipPath>
<clipPath id="c7_71"><path d="M495.5,1029.6V952.4H691.9v77.2Z"/></clipPath>
<clipPath id="c8_71"><path d="M243.1,1133.2V1056H434.8v77.2Z"/></clipPath>
<clipPath id="c9_71"><path d="M492.6,1137.7V1056H688.9v81.7Z"/></clipPath>
</defs>
<image clip-path="url(#c0_71)" preserveAspectRatio="none" x="362" y="690" width="184" height="155" xlink:href="img/1.png"/>
<image clip-path="url(#c1_71)" preserveAspectRatio="none" x="124" y="45" width="227" height="77" xlink:href="img/2.png"/>
<image clip-path="url(#c2_71)" preserveAspectRatio="none" x="396" y="33" width="414" height="89" xlink:href="img/3.png"/>
<image clip-path="url(#c3_71)" preserveAspectRatio="none" x="183" y="236" width="260" height="25" xlink:href="img/4.png"/>
<image clip-path="url(#c4_71)" preserveAspectRatio="none" x="512" y="233" width="239" height="31" xlink:href="img/5.png"/>
<image clip-path="url(#c5_71)" preserveAspectRatio="none" x="272" y="368" width="390" height="91" xlink:href="img/6.png"/>
<image clip-path="url(#c6_71)" preserveAspectRatio="none" x="244" y="952" width="191" height="78" xlink:href="img/7.png"/>
<image clip-path="url(#c7_71)" preserveAspectRatio="none" x="496" y="952" width="196" height="78" xlink:href="img/8.png"/>
<image clip-path="url(#c8_71)" preserveAspectRatio="none" x="243" y="1056" width="192" height="77" xlink:href="img/9.png"/>
<image clip-path="url(#c9_71)" preserveAspectRatio="none" x="493" y="1056" width="196" height="82" xlink:href="img/10.png"/>
</svg>