<?xml version="1.0" encoding="UTF-8" standalone="no"?>
<!DOCTYPE svg PUBLIC "-//W3C//DTD SVG 1.1//EN"
"http://www.w3.org/Graphics/SVG/1.1/DTD/svg11.dtd">
<svg viewBox="0 0 935 1210" version="1.1" xmlns="http://www.w3.org/2000/svg" xmlns:xlink="http://www.w3.org/1999/xlink">
<defs>
<clipPath id="c0_50"><path d="M55.2,986.6V965.2H137v21.4Z"/></clipPath>
<clipPath id="c1_50"><path d="M405.2,518.2V494.1H667.5v24.1Z"/></clipPath>
<clipPath id="c2_50"><path d="M374.5,380.3V358.2H514.3v22.1Z"/></clipPath>
<clipPath id="c3_50"><path d="M374.5,409.7V387.9H560.9v21.8Z"/></clipPath>
<clipPath id="c4_50"><path d="M374.5,467.4V445.7H547.9v21.7Z"/></clipPath>
<clipPath id="c5_50"><path d="M374.5,438.2v-21H554.4v21Z"/></clipPath>
<clipPath id="c6_50"><path d="M440.2,686.4V577.3H879.1V686.4Z"/></clipPath>
<clipPath id="c7_50"><path d="M342.4,824.8V714.5H878.7V824.8Z"/></clipPath>
<clipPath id="c8_50"><path d="M55.2,1093.1v-20.8h79.1v20.8Z"/></clipPath>
<clipPath id="c9_50"><path d="M55.2,1121.6V1103H171.8v18.6Z"/></clipPath>
<clipPath id="ca_50"><path d="M202.7,1093.1v-20.8h79.1v20.8Z"/></clipPath>
<clipPath id="cb_50"><path d="M202.7,1121.7v-18.6H308.3v18.6Z"/></clipPath>
<clipPath id="cc_50"><path d="M501.9,1093.1v-20.8H669v20.8Z"/></clipPath>
<clipPath id="cd_50"><path d="M501.9,1122.2v-20.8h96.7v20.8Z"/></clipPath>
<clipPath id="ce_50"><path d="M339.4,1093.1v-20.8H470.2v20.8Z"/></clipPath>
<clipPath id="cf_50"><path d="M339.4,1123.1v-20.9h93.5v20.9Z"/></clipPath>
<style type="text/css"><![CDATA[
.g0_50{
fill: none;
stroke: #000000;
stroke-width: 1.485;
stroke-linecap: butt;
stroke-linejoin: round;
}
.g1_50{
fill: none;
stroke: #000000;
stroke-width: 1.44;
stroke-linecap: butt;
stroke-linejoin: round;
}
.g2_50{
fill: none;
stroke: #000000;
stroke-width: 1.485;
stroke-linecap: butt;
stroke-linejoin: miter;
}
.g3_50{
fill: none;
stroke: #000000;
stroke-width: 1.427;
stroke-linecap: butt;
stroke-linejoin: round;
}
.g4_50{
fill: #939598;
stroke: #231F20;
stroke-width: 1.485;
stroke-linecap: butt;
stroke-linejoin: miter;
}
.g5_50{
fill: #939598;
}
.g6_50{
fill: none;
stroke: #231F20;
stroke-width: 1.485;
stroke-linecap: butt;
stroke-linejoin: miter;
}
.g7_50{
fill: none;
stroke: #000000;
stroke-width: 1.485;
stroke-linecap: round;
stroke-linejoin: miter;
}
.g8_50{
}
.g9_50{
fill: none;
stroke: #000000;
stroke-width: 1.399;
stroke-linecap: round;
stroke-linejoin: miter;
}
.ga_50{
fill: none;
stroke: #231F20;
stroke-width: 1.98;
stroke-linecap: round;
stroke-linejoin: miter;
}
]]></style>
</defs>
<image clip-path="url(#c0_50)" preserveAspectRatio="none" x="55" y="965" width="82" height="22" xlink:href="img/1.png"/>
<path d="M77.9,171.4h35.7V135.8H77.9v35.6Z" class="g0_50"/>
<path d="M140.3,135.8l5.5,11.8l12.3,1.9l-8.9,9.3l2.1,13l-11,-6.2l-11,6.2l2.1,-13l-8.9,-9.3l12.3,-1.9l5.5,-11.8Z" class="g1_50"/>
<path d="M184.9,153.6c0,9.8,-4,17.8,-9,17.8c-4.9,0,-8.9,-8,-8.9,-17.8c0,-9.9,4,-17.8,8.9,-17.8c5,0,9,7.9,9,17.8Z" class="g2_50"/>
<path d="M220.5,135.8H202.7l-8.9,17.8l8.9,17.8h17.8l8.9,-17.8l-8.9,-17.8Z" class="g3_50"/>
<path d="M284.5,171.4H245.6c-4,0,-7.3,-3.3,-7.3,-7.3V143c0,-4,3.3,-7.2,7.3,-7.2h38.9c4,0,7.3,3.2,7.3,7.2v21.1c0,4,-3.3,7.3,-7.3,7.3Z" class="g2_50"/>
<path d="M77.9,242.2h35.7V206.6H77.9v35.6Z" class="g4_50"/>
<path d="M140.3,206.6l5.5,11.9l12.3,1.9l-8.9,9.2l2.1,13l-11,-6.1l-11,6.1l2.1,-13l-8.9,-9.2l12.3,-1.9Z" class="g5_50"/>
<path d="M140.3,206.6l5.5,11.9l12.3,1.9l-8.9,9.2l2.1,13l-11,-6.1l-11,6.1l2.1,-13l-8.9,-9.2l12.3,-1.9l5.5,-11.9Z" class="g6_50"/>
<path d="M184.9,224.4c0,9.9,-4,17.8,-9,17.8c-4.9,0,-8.9,-7.9,-8.9,-17.8c0,-9.8,4,-17.8,8.9,-17.8c5,0,9,8,9,17.8Z" class="g5_50"/>
<path d="M184.9,224.4c0,9.9,-4,17.8,-9,17.8c-4.9,0,-8.9,-7.9,-8.9,-17.8c0,-9.8,4,-17.8,8.9,-17.8c5,0,9,8,9,17.8Z" class="g6_50"/>
<path d="M220.5,206.6H202.7l-8.9,17.8l8.9,17.8h17.8l8.9,-17.8Z" class="g5_50"/>
<path d="M220.5,206.6H202.7l-8.9,17.8l8.9,17.8h17.8l8.9,-17.8l-8.9,-17.8Z" class="g6_50"/>
<path d="M284.5,242.2H245.6c-4,0,-7.3,-3.2,-7.3,-7.2V213.9c0,-4,3.3,-7.3,7.3,-7.3h38.9c4,0,7.3,3.3,7.3,7.3V235c0,4,-3.3,7.2,-7.3,7.2Z" class="g5_50"/>
<path d="M284.5,242.2H245.6c-4,0,-7.3,-3.2,-7.3,-7.2V213.9c0,-4,3.3,-7.3,7.3,-7.3h38.9c4,0,7.3,3.3,7.3,7.3V235c0,4,-3.3,7.2,-7.3,7.2Z" class="g6_50"/>
<path d="M95.7,175.9v22.2" class="g7_50"/>
<path d="M95.7,202.6c-.7,-2.1,-2.1,-4.8,-3.5,-6.4l3.5,1.3l3.6,-1.3c-1.4,1.6,-2.8,4.3,-3.6,6.4Z" class="g8_50"/>
<path d="M140.3,175.9v22.2" class="g7_50"/>
<path d="M140.3,202.6c-.8,-2.1,-2.1,-4.8,-3.5,-6.4l3.5,1.3l3.5,-1.3c-1.4,1.6,-2.7,4.3,-3.5,6.4Z" class="g8_50"/>
<path d="M175.9,175.9v22.2" class="g7_50"/>
<path d="M175.9,202.6c-.7,-2.1,-2.1,-4.8,-3.5,-6.4l3.5,1.3l3.6,-1.3c-1.4,1.6,-2.8,4.3,-3.6,6.4Z" class="g8_50"/>
<path d="M211.6,175.9v22.2" class="g7_50"/>
<path d="M211.6,202.6c-.8,-2.1,-2.1,-4.8,-3.5,-6.4l3.5,1.3l3.5,-1.3c-1.4,1.6,-2.7,4.3,-3.5,6.4Z" class="g8_50"/>
<path d="M265,175.9v22.2" class="g7_50"/>
<path d="M265,202.6c-.7,-2.1,-2.1,-4.8,-3.5,-6.4l3.5,1.3l3.6,-1.3c-1.4,1.6,-2.8,4.3,-3.6,6.4Z" class="g8_50"/>
<path d="M363.1,171.4h35.6V135.8H363.1v35.6Z" class="g0_50"/>
<path d="M425.4,135.8l5.5,11.8l12.4,1.9l-9,9.3l2.2,13l-11.1,-6.2l-11,6.2l2.1,-13l-8.9,-9.3l12.3,-1.9l5.5,-11.8Z" class="g1_50"/>
<path d="M470,153.6c0,9.8,-4,17.8,-8.9,17.8c-4.9,0,-8.9,-8,-8.9,-17.8c0,-9.9,4,-17.8,8.9,-17.8c4.9,0,8.9,7.9,8.9,17.8Z" class="g2_50"/>
<path d="M505.6,135.8H487.8l-8.9,17.8l8.9,17.8h17.8l8.9,-17.8l-8.9,-17.8Z" class="g3_50"/>
<path d="M569.6,171.4H530.7c-4,0,-7.2,-3.3,-7.2,-7.3V143c0,-4,3.2,-7.2,7.2,-7.2h38.9c4,0,7.3,3.2,7.3,7.2v21.1c0,4,-3.3,7.3,-7.3,7.3Z" class="g2_50"/>
<path d="M363.1,242.2h35.6V206.6H363.1v35.6Z" class="g0_50"/>
<path d="M425.4,206.6l5.5,11.9l12.4,1.9l-9,9.2l2.2,13l-11.1,-6.1l-11,6.1l2.1,-13l-8.9,-9.2l12.3,-1.9l5.5,-11.9Z" class="g1_50"/>
<path d="M505.6,206.6H487.8l-8.9,17.8l8.9,17.8h17.8l8.9,-17.8l-8.9,-17.8Z" class="g3_50"/>
<path d="M380.9,175.9v22.2" class="g7_50"/>
<path d="M380.9,202.6c-.8,-2.1,-2.1,-4.8,-3.5,-6.4l3.5,1.3l3.5,-1.3c-1.4,1.6,-2.7,4.3,-3.5,6.4Z" class="g8_50"/>
<path d="M425.4,175.9v22.2" class="g7_50"/>
<path d="M425.4,202.6c-.7,-2.1,-2.1,-4.8,-3.5,-6.4l3.5,1.3l3.6,-1.3c-1.4,1.6,-2.8,4.3,-3.6,6.4Z" class="g8_50"/>
<path d="M461.1,175.9v8.8" class="g7_50"/>
<path d="M461.1,189.2c-.8,-2.1,-2.1,-4.7,-3.6,-6.3l3.6,1.2l3.5,-1.2c-1.4,1.6,-2.7,4.2,-3.5,6.3Z" class="g8_50"/>
<path d="M496.7,175.9v22.2" class="g7_50"/>
<path d="M496.7,202.6c-.8,-2.1,-2.1,-4.8,-3.5,-6.4l3.5,1.3l3.6,-1.3c-1.5,1.6,-2.8,4.3,-3.6,6.4Z" class="g8_50"/>
<path d="M550.2,175.9v8.8" class="g7_50"/>
<path d="M550.2,189.2c-.8,-2.1,-2.1,-4.7,-3.5,-6.3l3.5,1.2l3.5,-1.2c-1.4,1.6,-2.7,4.2,-3.5,6.3Z" class="g8_50"/>
<path d="M452.2,193.7l17.8,8.9m-17.8,0L470,193.7m71.3,0l17.8,8.9m-17.8,0l17.8,-8.9" class="g9_50"/>
<path d="M648.2,171.4h35.6V135.8H648.2v35.6Z" class="g0_50"/>
<path d="M710.6,135.8l5.5,11.8l12.3,1.9l-8.9,9.3l2.1,13l-11,-6.2l-11,6.2l2.1,-13l-8.9,-9.3l12.3,-1.9l5.5,-11.8Z" class="g1_50"/>
<path d="M755.1,153.6c0,9.8,-4,17.8,-8.9,17.8c-4.9,0,-8.9,-8,-8.9,-17.8c0,-9.9,4,-17.8,8.9,-17.8c4.9,0,8.9,7.9,8.9,17.8Z" class="g2_50"/>
<path d="M790.8,135.8H772.9L764,153.6l8.9,17.8h17.9l8.9,-17.8l-8.9,-17.8Z" class="g3_50"/>
<path d="M854.8,171.4H815.9c-4,0,-7.3,-3.3,-7.3,-7.3V143c0,-4,3.3,-7.2,7.3,-7.2h38.9c4,0,7.3,3.2,7.3,7.2v21.1c0,4,-3.3,7.3,-7.3,7.3Z" class="g2_50"/>
<path d="M737.3,242.2h35.6V206.6H737.3v35.6Z" class="g0_50"/>
<path d="M755.1,206.6l5.5,11.9l12.3,1.9l-8.9,9.2l2.1,13l-11,-6.1l-11,6.1l2.1,-13l-8.9,-9.2l12.3,-1.9l5.5,-11.9Z" class="g1_50"/>
<path d="M764,224.4c0,9.9,-4,17.8,-8.9,17.8c-4.9,0,-8.9,-7.9,-8.9,-17.8c0,-9.8,4,-17.8,8.9,-17.8c4.9,0,8.9,8,8.9,17.8Z" class="g2_50"/>
<path d="M764,206.6H746.2l-8.9,17.8l8.9,17.8H764l8.9,-17.8L764,206.6Z" class="g3_50"/>
<path d="M774.6,242.2H735.7c-4,0,-7.3,-3.2,-7.3,-7.2V213.9c0,-4,3.3,-7.3,7.3,-7.3h38.9c4,0,7.3,3.3,7.3,7.3V235c0,4,-3.3,7.2,-7.3,7.2Z" class="g2_50"/>
<path d="M630.4,180.3c0,4.9,4,8.9,8.9,8.9m115.8,8.9c0,-4.9,-4,-8.9,-8.9,-8.9m0,0H639.3m115.8,8.9c0,-4.9,4,-8.9,8.9,-8.9m115.9,-8.9c0,4.9,-4,8.9,-8.9,8.9m0,0H764" class="ga_50"/>
<image clip-path="url(#c1_50)" preserveAspectRatio="none" x="405" y="494" width="262" height="24" xlink:href="img/2.png"/>
<image clip-path="url(#c2_50)" preserveAspectRatio="none" x="375" y="358" width="139" height="22" xlink:href="img/3.png"/>
<image clip-path="url(#c3_50)" preserveAspectRatio="none" x="375" y="388" width="186" height="22" xlink:href="img/4.png"/>
<image clip-path="url(#c4_50)" preserveAspectRatio="none" x="375" y="446" width="173" height="21" xlink:href="img/5.png"/>
<image clip-path="url(#c5_50)" preserveAspectRatio="none" x="375" y="417" width="179" height="21" xlink:href="img/6.png"/>
<image clip-path="url(#c6_50)" preserveAspectRatio="none" x="440" y="577" width="439" height="109" xlink:href="img/7.png"/>
<image clip-path="url(#c7_50)" preserveAspectRatio="none" x="342" y="715" width="537" height="110" xlink:href="img/8.png"/>
<image clip-path="url(#c8_50)" preserveAspectRatio="none" x="55" y="1072" width="79" height="21" xlink:href="img/9.png"/>
<image clip-path="url(#c9_50)" preserveAspectRatio="none" x="55" y="1103" width="117" height="19" xlink:href="img/10.png"/>
<image clip-path="url(#ca_50)" preserveAspectRatio="none" x="203" y="1072" width="79" height="21" xlink:href="img/11.png"/>
<image clip-path="url(#cb_50)" preserveAspectRatio="none" x="203" y="1103" width="105" height="19" xlink:href="img/12.png"/>
<image clip-path="url(#cc_50)" preserveAspectRatio="none" x="502" y="1072" width="167" height="21" xlink:href="img/13.png"/>
<image clip-path="url(#cd_50)" preserveAspectRatio="none" x="502" y="1101" width="97" height="21" xlink:href="img/14.png"/>
<image clip-path="url(#ce_50)" preserveAspectRatio="none" x="339" y="1072" width="131" height="21" xlink:href="img/15.png"/>
<image clip-path="url(#cf_50)" preserveAspectRatio="none" x="339" y="1102" width="94" height="21" xlink:href="img/16.png"/>
</svg>