<?xml version="1.0" encoding="UTF-8" standalone="no"?>
<!DOCTYPE svg PUBLIC "-//W3C//DTD SVG 1.1//EN"
"http://www.w3.org/Graphics/SVG/1.1/DTD/svg11.dtd">
<svg viewBox="0 0 935 1210" version="1.1" xmlns="http://www.w3.org/2000/svg" xmlns:xlink="http://www.w3.org/1999/xlink">
<defs>
<clipPath id="c0_55"><path d="M516.9,195.2V171.9H668.2v23.3Z"/></clipPath>
<clipPath id="c1_55"><path d="M183.1,1070.1V615.2H751.9v454.9Z"/></clipPath>
<clipPath id="c2_55"><path d="M325.4,588.5V412H609.6V588.5Z"/></clipPath>
<clipPath id="c3_55"><path d="M700.3,998.2V976.5H722v21.7Z"/></clipPath>
<style type="text/css"><![CDATA[
.g0_55{
}
.g1_55{
fill: none;
stroke: #FF0000;
stroke-width: 3.055;
stroke-linecap: butt;
stroke-linejoin: round;
}
]]></style>
</defs>
<image clip-path="url(#c0_55)" preserveAspectRatio="none" x="517" y="172" width="151" height="23" xlink:href="img/1.png"/>
<path d="M55,77H228.4v-.4H55V77Z" class="g0_55"/>
<image clip-path="url(#c1_55)" preserveAspectRatio="none" x="183" y="615" width="569" height="455" xlink:href="img/2.png"/>
<image clip-path="url(#c2_55)" preserveAspectRatio="none" x="325" y="412" width="285" height="177" xlink:href="img/3.jpg"/>
<path d="M555.7,507.5c0,-6.2,3.9,-11.2,8.6,-11.2c4.8,0,8.6,5,8.6,11.2c0,6.1,-3.8,11.1,-8.6,11.1c-4.7,0,-8.6,-5,-8.6,-11.1Z" class="g1_55"/>
<image clip-path="url(#c3_55)" preserveAspectRatio="none" x="700" y="976" width="22" height="22" xlink:href="img/4.png"/>
</svg>