<?xml version="1.0" encoding="UTF-8" standalone="no"?>
<!DOCTYPE svg PUBLIC "-//W3C//DTD SVG 1.1//EN"
"http://www.w3.org/Graphics/SVG/1.1/DTD/svg11.dtd">
<svg viewBox="0 0 935 1210" version="1.1" xmlns="http://www.w3.org/2000/svg" xmlns:xlink="http://www.w3.org/1999/xlink">
<defs>
<clipPath id="c0_140"><path d="M346.7,180.2V147.7h209v32.5Z"/></clipPath>
<clipPath id="c1_140"><path d="M55.2,180.9V147H282.5v33.9Z"/></clipPath>
<clipPath id="c2_140"><path d="M619.9,176.8V151.1H722.5v25.7Z"/></clipPath>
<clipPath id="c3_140"><path d="M55.7,296.6V260H346.3v36.6Z"/></clipPath>
<clipPath id="c4_140"><path d="M222,381V260H579.5V381Z"/></clipPath>
<clipPath id="c5_140"><path d="M632.7,296.6V260H879.3v36.6Z"/></clipPath>
<clipPath id="c6_140"><path d="M449.4,624.3V585.8H879.3v38.5Z"/></clipPath>
<clipPath id="c7_140"><path d="M55.2,624.3V590.4H412.7v33.9Z"/></clipPath>
<clipPath id="c8_140"><path d="M55.2,580.9V547H322.9v33.9Z"/></clipPath>
<clipPath id="c9_140"><path d="M339.7,580.9V547H612.9v33.9Z"/></clipPath>
<clipPath id="ca_140"><path d="M629.7,580.9V547H879v33.9Z"/></clipPath>
<clipPath id="cb_140"><path d="M55.2,668.8V630.3H347.6v38.5Z"/></clipPath>
<clipPath id="cc_140"><path d="M374.5,668.8V634.9H729.3v33.9Z"/></clipPath>
<clipPath id="cd_140"><path d="M55.1,798.8V774H159.6v24.8Z"/></clipPath>
<clipPath id="ce_140"><path d="M197.2,798.8V773.1H425.5v25.7Z"/></clipPath>
<clipPath id="cf_140"><path d="M463.1,798.8V773.1H647.3v25.7Z"/></clipPath>
<clipPath id="cg_140"><path d="M55.2,1046.9v-25.7H464v25.7Z"/></clipPath>
<clipPath id="ch_140"><path d="M510.4,1046.9v-24.7H727.7v24.7Z"/></clipPath>
<clipPath id="ci_140"><path d="M194.4,984.7V963.3H393v21.4Z"/></clipPath>
</defs>
<image clip-path="url(#c0_140)" preserveAspectRatio="none" x="347" y="148" width="209" height="32" xlink:href="img/1.png"/>
<image clip-path="url(#c1_140)" preserveAspectRatio="none" x="55" y="147" width="228" height="34" xlink:href="img/2.png"/>
<image clip-path="url(#c2_140)" preserveAspectRatio="none" x="620" y="151" width="103" height="26" xlink:href="img/3.png"/>
<image clip-path="url(#c3_140)" preserveAspectRatio="none" x="56" y="260" width="290" height="37" xlink:href="img/4.png"/>
<image clip-path="url(#c4_140)" preserveAspectRatio="none" x="222" y="260" width="357" height="121" xlink:href="img/5.png"/>
<image clip-path="url(#c5_140)" preserveAspectRatio="none" x="633" y="260" width="246" height="37" xlink:href="img/6.png"/>
<image clip-path="url(#c6_140)" preserveAspectRatio="none" x="449" y="586" width="430" height="38" xlink:href="img/7.png"/>
<image clip-path="url(#c7_140)" preserveAspectRatio="none" x="55" y="590" width="358" height="34" xlink:href="img/8.png"/>
<image clip-path="url(#c8_140)" preserveAspectRatio="none" x="55" y="547" width="268" height="34" xlink:href="img/9.png"/>
<image clip-path="url(#c9_140)" preserveAspectRatio="none" x="340" y="547" width="273" height="34" xlink:href="img/10.png"/>
<image clip-path="url(#ca_140)" preserveAspectRatio="none" x="630" y="547" width="249" height="34" xlink:href="img/11.png"/>
<image clip-path="url(#cb_140)" preserveAspectRatio="none" x="55" y="630" width="293" height="39" xlink:href="img/12.png"/>
<image clip-path="url(#cc_140)" preserveAspectRatio="none" x="375" y="635" width="354" height="34" xlink:href="img/13.png"/>
<image clip-path="url(#cd_140)" preserveAspectRatio="none" x="55" y="774" width="105" height="25" xlink:href="img/14.png"/>
<image clip-path="url(#ce_140)" preserveAspectRatio="none" x="197" y="773" width="228" height="26" xlink:href="img/15.png"/>
<image clip-path="url(#cf_140)" preserveAspectRatio="none" x="463" y="773" width="184" height="26" xlink:href="img/16.png"/>
<image clip-path="url(#cg_140)" preserveAspectRatio="none" x="55" y="1021" width="409" height="26" xlink:href="img/17.png"/>
<image clip-path="url(#ch_140)" preserveAspectRatio="none" x="510" y="1022" width="218" height="25" xlink:href="img/18.png"/>
<image clip-path="url(#ci_140)" preserveAspectRatio="none" x="194" y="963" width="199" height="22" xlink:href="img/19.png"/>
</svg>