<?xml version="1.0" encoding="UTF-8" standalone="no"?>
<!DOCTYPE svg PUBLIC "-//W3C//DTD SVG 1.1//EN"
"http://www.w3.org/Graphics/SVG/1.1/DTD/svg11.dtd">
<svg viewBox="0 0 935 1210" version="1.1" xmlns="http://www.w3.org/2000/svg" xmlns:xlink="http://www.w3.org/1999/xlink">
<defs>
<clipPath id="c0_11"><path d="M175,1075.1V865.5H709v209.6Z"/></clipPath>
<clipPath id="c1_11"><path d="M482.8,529.8V439.7H756.3v90.1Z"/></clipPath>
<clipPath id="c2_11"><path d="M171.1,531.7V381.6H400.3V531.7Z"/></clipPath>
<clipPath id="c3_11"><path d="M592.2,790.9V700.8H865.6v90.1Z"/></clipPath>
<clipPath id="c4_11"><path d="M176.6,792.8V633.6H536.4V792.8Z"/></clipPath>
<clipPath id="c5_11"><path d="M168.1,1139.4V1113H378.9v26.4Z"/></clipPath>
<clipPath id="c6_11"><path d="M170.7,217V111.6H450.3V217Z"/></clipPath>
<clipPath id="c7_11"><path d="M506.5,177.5V132.4H755.1v45.1Z"/></clipPath>
<clipPath id="c8_11"><path d="M55,320.8v-68H287.2v68Z"/></clipPath>
</defs>
<image clip-path="url(#c0_11)" preserveAspectRatio="none" x="175" y="865" width="534" height="210" xlink:href="img/1.png"/>
<image clip-path="url(#c1_11)" preserveAspectRatio="none" x="483" y="440" width="273" height="90" xlink:href="img/2.jpg"/>
<image clip-path="url(#c2_11)" preserveAspectRatio="none" x="171" y="382" width="229" height="150" xlink:href="img/3.png"/>
<image clip-path="url(#c3_11)" preserveAspectRatio="none" x="592" y="701" width="274" height="90" xlink:href="img/4.jpg"/>
<image clip-path="url(#c4_11)" preserveAspectRatio="none" x="177" y="634" width="359" height="159" xlink:href="img/5.png"/>
<image clip-path="url(#c5_11)" preserveAspectRatio="none" x="168" y="1113" width="211" height="26" xlink:href="img/6.png"/>
<image clip-path="url(#c6_11)" preserveAspectRatio="none" x="171" y="112" width="279" height="105" xlink:href="img/7.jpg"/>
<image clip-path="url(#c7_11)" preserveAspectRatio="none" x="507" y="132" width="248" height="46" xlink:href="img/8.png"/>
<image clip-path="url(#c8_11)" preserveAspectRatio="none" x="55" y="253" width="232" height="68" xlink:href="img/9.jpg"/>
</svg>