<?xml version="1.0" encoding="UTF-8" standalone="no"?>
<!DOCTYPE svg PUBLIC "-//W3C//DTD SVG 1.1//EN"
"http://www.w3.org/Graphics/SVG/1.1/DTD/svg11.dtd">
<svg viewBox="0 0 935 1210" version="1.1" xmlns="http://www.w3.org/2000/svg" xmlns:xlink="http://www.w3.org/1999/xlink">
<defs>
<clipPath id="c0_127"><path d="M72,172.4V127.6H731.6v44.8Z"/></clipPath>
<clipPath id="c1_127"><path d="M76.1,218.3V185.2H727.5v33.1Z"/></clipPath>
<clipPath id="c2_127"><path d="M519.8,251.9V226h25.9v25.9Z"/></clipPath>
<clipPath id="c3_127"><path d="M704.8,251.9V226h26v25.9Z"/></clipPath>
<clipPath id="c4_127"><path d="M284.4,348.7v-26h26v26Z"/></clipPath>
<clipPath id="c5_127"><path d="M494.6,457.9V429.8H710v28.1Z"/></clipPath>
<clipPath id="c6_127"><path d="M655.4,648.3V443.4H880V648.3Z"/></clipPath>
<clipPath id="c7_127"><path d="M49.5,658V421.2H475.7V658Z"/></clipPath>
<clipPath id="c8_127"><path d="M149.5,772.1v-33H786.7v33Z"/></clipPath>
<clipPath id="c9_127"><path d="M148.2,838.4v-33h638v33Z"/></clipPath>
<clipPath id="ca_127"><path d="M561.8,946.5V918.3H742v28.2Z"/></clipPath>
<clipPath id="cb_127"><path d="M55,943.4V921.5H494.9v21.9Z"/></clipPath>
<clipPath id="cc_127"><path d="M0,1210V0H935V1210Z"/></clipPath>
<clipPath id="cd_127"><path d="M340.2,703.7V675.4H577.7v28.3Z"/></clipPath>
<style type="text/css"><![CDATA[
.g0_127{
fill: none;
stroke: #704214;
stroke-width: 3.055;
stroke-linecap: butt;
stroke-linejoin: round;
}
.g1_127{
fill: #704214;
}
]]></style>
</defs>
<image clip-path="url(#c0_127)" preserveAspectRatio="none" x="72" y="128" width="660" height="44" xlink:href="img/1.jpg"/>
<image clip-path="url(#c1_127)" preserveAspectRatio="none" x="76" y="185" width="651" height="33" xlink:href="img/2.jpg"/>
<image clip-path="url(#c2_127)" preserveAspectRatio="none" x="520" y="226" width="26" height="26" xlink:href="img/3.jpg"/>
<image clip-path="url(#c3_127)" preserveAspectRatio="none" x="705" y="226" width="26" height="26" xlink:href="img/4.jpg"/>
<image clip-path="url(#c4_127)" preserveAspectRatio="none" x="284" y="323" width="26" height="26" xlink:href="img/5.jpg"/>
<image clip-path="url(#c5_127)" preserveAspectRatio="none" x="495" y="430" width="215" height="28" xlink:href="img/6.png"/>
<image clip-path="url(#c6_127)" preserveAspectRatio="none" x="655" y="443" width="225" height="205" xlink:href="img/7.png"/>
<image clip-path="url(#c7_127)" preserveAspectRatio="none" x="50" y="421" width="426" height="237" xlink:href="img/8.png"/>
<image clip-path="url(#c8_127)" preserveAspectRatio="none" x="149" y="739" width="638" height="33" xlink:href="img/9.jpg"/>
<image clip-path="url(#c9_127)" preserveAspectRatio="none" x="148" y="805" width="638" height="33" xlink:href="img/10.jpg"/>
<image clip-path="url(#ca_127)" preserveAspectRatio="none" x="562" y="918" width="180" height="29" xlink:href="img/11.png"/>
<image clip-path="url(#cb_127)" preserveAspectRatio="none" x="55" y="921" width="440" height="22" xlink:href="img/12.jpg"/>
<image clip-path="url(#cc_127)" preserveAspectRatio="none" x="448" y="362" width="136" height="84" xlink:href="img/13.png"/>
<path d="M453.8,366.5l110.1,57.7" class="g0_127"/>
<path fill-rule="evenodd" d="M566.6,425.6l-13.2,.6c-.9,.1,-1.6,-.6,-1.6,-1.4c-.1,-.9,.6,-1.6,1.4,-1.6l8,-.4L557,416c-.5,-.7,-.3,-1.6,.5,-2.1c.7,-.4,1.6,-.2,2.1,.5Z" class="g1_127"/>
<image clip-path="url(#cd_127)" preserveAspectRatio="none" x="340" y="675" width="238" height="29" xlink:href="img/14.png"/>
</svg>