<?xml version="1.0" encoding="UTF-8" standalone="no"?>
<!DOCTYPE svg PUBLIC "-//W3C//DTD SVG 1.1//EN"
"http://www.w3.org/Graphics/SVG/1.1/DTD/svg11.dtd">
<svg viewBox="0 0 935 1210" version="1.1" xmlns="http://www.w3.org/2000/svg" xmlns:xlink="http://www.w3.org/1999/xlink">
<defs>
<clipPath id="c0_21"><path d="M55,78.1V55h91.2V78.1Z"/></clipPath>
<clipPath id="c1_21"><path d="M155.8,78.1V55H312.9V78.1Z"/></clipPath>
<clipPath id="c2_21"><path d="M661.2,155.5V134.4h53.2v21.1Z"/></clipPath>
<clipPath id="c3_21"><path d="M600.1,155.5V134.4h53.2v21.1Z"/></clipPath>
<clipPath id="c4_21"><path d="M534.1,155.9v-22h57.8v22Z"/></clipPath>
<clipPath id="c5_21"><path d="M441.2,161.4v-33h84.4v33Z"/></clipPath>
<clipPath id="c6_21"><path d="M323.9,158.2V131.6h110v26.6Z"/></clipPath>
<clipPath id="c7_21"><path d="M177.2,162.8V127H316.6v35.8Z"/></clipPath>
<clipPath id="c8_21"><path d="M55,162.8V127H169.6v35.8Z"/></clipPath>
<clipPath id="c9_21"><path d="M300.2,235V207.5H533.9V235Z"/></clipPath>
<clipPath id="ca_21"><path d="M54.2,238.3V202.6H287.9v35.7Z"/></clipPath>
<clipPath id="cb_21"><path d="M462.6,307.7V280.1H641.4v27.6Z"/></clipPath>
<clipPath id="cc_21"><path d="M260.3,312.9v-38H440.2v38Z"/></clipPath>
<clipPath id="cd_21"><path d="M55,307.8V280.1H237.7v27.7Z"/></clipPath>
<clipPath id="ce_21"><path d="M55,388.4V362H247.6v26.4Z"/></clipPath>
<clipPath id="cf_21"><path d="M258.8,388.4V362h260v26.4Z"/></clipPath>
<clipPath id="cg_21"><path d="M55,511.2V478H262.2v33.2Z"/></clipPath>
<clipPath id="ch_21"><path d="M274.3,508.7V480.3H407.2v28.4Z"/></clipPath>
<clipPath id="ci_21"><path d="M419.3,507.7V481.3H596.2v26.4Z"/></clipPath>
<clipPath id="cj_21"><path d="M56.4,467V432.9H309.6V467Z"/></clipPath>
<clipPath id="ck_21"><path d="M320.3,463.1V436.8H512v26.3Z"/></clipPath>
<clipPath id="cl_21"><path d="M57.3,424.4V399.7H371.7v24.7Z"/></clipPath>
<clipPath id="cm_21"><path d="M387.4,425.3V400.6H644.1v24.7Z"/></clipPath>
<clipPath id="cn_21"><path d="M481.6,548.3V528.2h77.9v20.1Z"/></clipPath>
<clipPath id="co_21"><path d="M248.2,555.7v-33H455.4v33Z"/></clipPath>
<clipPath id="cp_21"><path d="M56,553.7V520.8H221v32.9Z"/></clipPath>
<clipPath id="cq_21"><path d="M355.3,352.6V323.4h88.9v29.2Z"/></clipPath>
<clipPath id="cr_21"><path d="M60.9,350.9V325.2H188.3v25.7Z"/></clipPath>
<clipPath id="cs_21"><path d="M222.3,350.8V325.1h99v25.7Z"/></clipPath>
<clipPath id="ct_21"><path d="M55.4,749V603.9H317.1V749Z"/></clipPath>
<clipPath id="cu_21"><path d="M329.2,768.6V741.3H589.9v27.3Z"/></clipPath>
<clipPath id="cv_21"><path d="M329.2,798.9V770.3H673.5v28.6Z"/></clipPath>
<clipPath id="cw_21"><path d="M329.4,872.2V838.1H608.5v34.1Z"/></clipPath>
</defs>
<image clip-path="url(#c0_21)" preserveAspectRatio="none" x="55" y="55" width="91" height="23" xlink:href="img/1.png"/>
<image clip-path="url(#c1_21)" preserveAspectRatio="none" x="156" y="55" width="157" height="23" xlink:href="img/2.png"/>
<image clip-path="url(#c2_21)" preserveAspectRatio="none" x="661" y="134" width="53" height="21" xlink:href="img/3.png"/>
<image clip-path="url(#c3_21)" preserveAspectRatio="none" x="600" y="134" width="53" height="21" xlink:href="img/4.png"/>
<image clip-path="url(#c4_21)" preserveAspectRatio="none" x="534" y="134" width="58" height="22" xlink:href="img/5.png"/>
<image clip-path="url(#c5_21)" preserveAspectRatio="none" x="441" y="128" width="85" height="33" xlink:href="img/6.png"/>
<image clip-path="url(#c6_21)" preserveAspectRatio="none" x="324" y="132" width="110" height="26" xlink:href="img/7.png"/>
<image clip-path="url(#c7_21)" preserveAspectRatio="none" x="177" y="127" width="140" height="36" xlink:href="img/8.png"/>
<image clip-path="url(#c8_21)" preserveAspectRatio="none" x="55" y="127" width="115" height="36" xlink:href="img/9.png"/>
<image clip-path="url(#c9_21)" preserveAspectRatio="none" x="300" y="207" width="234" height="28" xlink:href="img/10.png"/>
<image clip-path="url(#ca_21)" preserveAspectRatio="none" x="54" y="203" width="234" height="35" xlink:href="img/11.png"/>
<image clip-path="url(#cb_21)" preserveAspectRatio="none" x="463" y="280" width="178" height="28" xlink:href="img/12.png"/>
<image clip-path="url(#cc_21)" preserveAspectRatio="none" x="260" y="275" width="180" height="38" xlink:href="img/13.png"/>
<image clip-path="url(#cd_21)" preserveAspectRatio="none" x="55" y="280" width="183" height="28" xlink:href="img/14.png"/>
<image clip-path="url(#ce_21)" preserveAspectRatio="none" x="55" y="362" width="193" height="26" xlink:href="img/15.png"/>
<image clip-path="url(#cf_21)" preserveAspectRatio="none" x="259" y="362" width="260" height="26" xlink:href="img/16.png"/>
<image clip-path="url(#cg_21)" preserveAspectRatio="none" x="55" y="478" width="207" height="33" xlink:href="img/17.png"/>
<image clip-path="url(#ch_21)" preserveAspectRatio="none" x="274" y="480" width="133" height="29" xlink:href="img/18.png"/>
<image clip-path="url(#ci_21)" preserveAspectRatio="none" x="419" y="481" width="177" height="27" xlink:href="img/19.png"/>
<image clip-path="url(#cj_21)" preserveAspectRatio="none" x="56" y="433" width="254" height="34" xlink:href="img/20.png"/>
<image clip-path="url(#ck_21)" preserveAspectRatio="none" x="320" y="437" width="192" height="26" xlink:href="img/21.png"/>
<image clip-path="url(#cl_21)" preserveAspectRatio="none" x="57" y="400" width="315" height="24" xlink:href="img/22.png"/>
<image clip-path="url(#cm_21)" preserveAspectRatio="none" x="387" y="401" width="257" height="24" xlink:href="img/23.png"/>
<image clip-path="url(#cn_21)" preserveAspectRatio="none" x="482" y="528" width="77" height="20" xlink:href="img/24.png"/>
<image clip-path="url(#co_21)" preserveAspectRatio="none" x="248" y="523" width="207" height="33" xlink:href="img/25.png"/>
<image clip-path="url(#cp_21)" preserveAspectRatio="none" x="56" y="521" width="165" height="33" xlink:href="img/26.png"/>
<image clip-path="url(#cq_21)" preserveAspectRatio="none" x="355" y="323" width="89" height="30" xlink:href="img/27.png"/>
<image clip-path="url(#cr_21)" preserveAspectRatio="none" x="61" y="325" width="127" height="26" xlink:href="img/28.png"/>
<image clip-path="url(#cs_21)" preserveAspectRatio="none" x="222" y="325" width="99" height="26" xlink:href="img/29.png"/>
<image clip-path="url(#ct_21)" preserveAspectRatio="none" x="55" y="604" width="262" height="145" xlink:href="img/30.png"/>
<image clip-path="url(#cu_21)" preserveAspectRatio="none" x="329" y="741" width="261" height="28" xlink:href="img/31.png"/>
<image clip-path="url(#cv_21)" preserveAspectRatio="none" x="329" y="770" width="345" height="29" xlink:href="img/32.png"/>
<image clip-path="url(#cw_21)" preserveAspectRatio="none" x="329" y="838" width="280" height="34" xlink:href="img/33.png"/>
</svg>