<?xml version="1.0" encoding="UTF-8" standalone="no"?>
<!DOCTYPE svg PUBLIC "-//W3C//DTD SVG 1.1//EN"
"http://www.w3.org/Graphics/SVG/1.1/DTD/svg11.dtd">
<svg viewBox="0 0 935 1210" version="1.1" xmlns="http://www.w3.org/2000/svg" xmlns:xlink="http://www.w3.org/1999/xlink">
<defs>
<clipPath id="c0_132"><path d="M55,1050.4V954.2H178v96.2Z"/></clipPath>
<clipPath id="c1_132"><path d="M195.4,1050.4V954.2h123v96.2Z"/></clipPath>
<clipPath id="c2_132"><path d="M335.8,1050.4V954.2h123v96.2Z"/></clipPath>
<clipPath id="c3_132"><path d="M476.2,1050.4V954.2h123v96.2Z"/></clipPath>
<clipPath id="c4_132"><path d="M616.6,1050.4V954.2h123v96.2Z"/></clipPath>
<clipPath id="c5_132"><path d="M757,1050.4V954.2H880v96.2Z"/></clipPath>
<clipPath id="c6_132"><path d="M108.6,475.5V437.6H534v37.9Z"/></clipPath>
<clipPath id="c7_132"><path d="M55.8,451.5V413.6H481.1v37.9Z"/></clipPath>
<clipPath id="c8_132"><path d="M332.2,634.6V596.8H772.8v37.8Z"/></clipPath>
<clipPath id="c9_132"><path d="M385.8,657.3V619.4H826.4v37.9Z"/></clipPath>
<style type="text/css"><![CDATA[
.g0_132{
}
]]></style>
</defs>
<path d="M55,1095.2H175.6v-.3H55v.3Z" class="g0_132"/>
<image clip-path="url(#c0_132)" preserveAspectRatio="none" x="55" y="954" width="123" height="96" xlink:href="img/1.jpg"/>
<image clip-path="url(#c1_132)" preserveAspectRatio="none" x="195" y="954" width="123" height="96" xlink:href="img/2.jpg"/>
<image clip-path="url(#c2_132)" preserveAspectRatio="none" x="336" y="954" width="123" height="96" xlink:href="img/3.jpg"/>
<image clip-path="url(#c3_132)" preserveAspectRatio="none" x="476" y="954" width="123" height="96" xlink:href="img/4.jpg"/>
<image clip-path="url(#c4_132)" preserveAspectRatio="none" x="617" y="954" width="123" height="96" xlink:href="img/5.jpg"/>
<image clip-path="url(#c5_132)" preserveAspectRatio="none" x="757" y="954" width="123" height="96" xlink:href="img/6.jpg"/>
<image clip-path="url(#c6_132)" preserveAspectRatio="none" x="109" y="438" width="425" height="38" xlink:href="img/7.png"/>
<image clip-path="url(#c7_132)" preserveAspectRatio="none" x="56" y="414" width="425" height="38" xlink:href="img/8.png"/>
<image clip-path="url(#c8_132)" preserveAspectRatio="none" x="332" y="597" width="441" height="38" xlink:href="img/9.png"/>
<image clip-path="url(#c9_132)" preserveAspectRatio="none" x="386" y="619" width="440" height="38" xlink:href="img/10.png"/>
</svg>