<?xml version="1.0" encoding="UTF-8" standalone="no"?>
<!DOCTYPE svg PUBLIC "-//W3C//DTD SVG 1.1//EN"
"http://www.w3.org/Graphics/SVG/1.1/DTD/svg11.dtd">
<svg viewBox="0 0 935 1210" version="1.1" xmlns="http://www.w3.org/2000/svg" xmlns:xlink="http://www.w3.org/1999/xlink">
<defs>
<clipPath id="c0_30"><path d="M55.1,735.6V688.3H586.7v47.3Z"/></clipPath>
<clipPath id="c1_30"><path d="M330,1092.1v-23H880v23Z"/></clipPath>
<clipPath id="c2_30"><path d="M440,1035.1v-22.9H880v22.9Z"/></clipPath>
<clipPath id="c3_30"><path d="M440,1067.6v-22.9H880v22.9Z"/></clipPath>
<clipPath id="c4_30"><path d="M330,1138.3v-22.9H880v22.9Z"/></clipPath>
<clipPath id="c5_30"><path d="M57.8,465.4V434.8H349.6v30.6Z"/></clipPath>
<clipPath id="c6_30"><path d="M91.1,686V453H394.3V686Z"/></clipPath>
<clipPath id="c7_30"><path d="M255.4,384.8V360H359.9v24.8Z"/></clipPath>
<clipPath id="c8_30"><path d="M190.7,410V384.3H315.4V410Z"/></clipPath>
<clipPath id="c9_30"><path d="M55.3,928V900.5h825V928Z"/></clipPath>
<clipPath id="ca_30"><path d="M55.2,964V936.5h825V964Z"/></clipPath>
<clipPath id="cb_30"><path d="M55,200.8V79.4H430.1V200.8Z"/></clipPath>
<clipPath id="cc_30"><path d="M634.8,185.9V79.4H855.5V185.9Z"/></clipPath>
<clipPath id="cd_30"><path d="M638.7,183.4V152.9H835.1v30.5Z"/></clipPath>
<clipPath id="ce_30"><path d="M330.2,135.1V112H544.7v23.1Z"/></clipPath>
<clipPath id="cf_30"><path d="M330.2,166.8V144.5H525.7v22.3Z"/></clipPath>
</defs>
<image clip-path="url(#c0_30)" preserveAspectRatio="none" x="55" y="688" width="532" height="48" xlink:href="img/1.png"/>
<image clip-path="url(#c1_30)" preserveAspectRatio="none" x="330" y="1069" width="550" height="23" xlink:href="img/2.jpg"/>
<image clip-path="url(#c2_30)" preserveAspectRatio="none" x="440" y="1012" width="440" height="23" xlink:href="img/3.jpg"/>
<image clip-path="url(#c3_30)" preserveAspectRatio="none" x="440" y="1045" width="440" height="23" xlink:href="img/4.jpg"/>
<image clip-path="url(#c4_30)" preserveAspectRatio="none" x="330" y="1115" width="550" height="23" xlink:href="img/5.jpg"/>
<image clip-path="url(#c5_30)" preserveAspectRatio="none" x="58" y="435" width="292" height="30" xlink:href="img/6.png"/>
<image clip-path="url(#c6_30)" preserveAspectRatio="none" x="91" y="453" width="303" height="233" xlink:href="img/7.png"/>
<image clip-path="url(#c7_30)" preserveAspectRatio="none" x="255" y="360" width="105" height="25" xlink:href="img/8.png"/>
<image clip-path="url(#c8_30)" preserveAspectRatio="none" x="191" y="384" width="124" height="26" xlink:href="img/9.png"/>
<image clip-path="url(#c9_30)" preserveAspectRatio="none" x="55" y="901" width="825" height="27" xlink:href="img/10.jpg"/>
<image clip-path="url(#ca_30)" preserveAspectRatio="none" x="55" y="937" width="825" height="27" xlink:href="img/11.jpg"/>
<image clip-path="url(#cb_30)" preserveAspectRatio="none" x="55" y="79" width="375" height="122" xlink:href="img/12.png"/>
<image clip-path="url(#cc_30)" preserveAspectRatio="none" x="635" y="79" width="220" height="107" xlink:href="img/13.png"/>
<image clip-path="url(#cd_30)" preserveAspectRatio="none" x="639" y="153" width="196" height="30" xlink:href="img/14.png"/>
<image clip-path="url(#ce_30)" preserveAspectRatio="none" x="330" y="112" width="215" height="23" xlink:href="img/15.png"/>
<image clip-path="url(#cf_30)" preserveAspectRatio="none" x="330" y="145" width="196" height="22" xlink:href="img/16.png"/>
</svg>