<?xml version="1.0" encoding="UTF-8" standalone="no"?>
<!DOCTYPE svg PUBLIC "-//W3C//DTD SVG 1.1//EN"
"http://www.w3.org/Graphics/SVG/1.1/DTD/svg11.dtd">
<svg viewBox="0 0 935 1210" version="1.1" xmlns="http://www.w3.org/2000/svg" xmlns:xlink="http://www.w3.org/1999/xlink">
<defs>
<clipPath id="c0_9"><path d="M55,734.7V612.5h62.6V734.7Z"/></clipPath>
<clipPath id="c1_9"><path d="M155.8,734.7v-166H473.2v166Z"/></clipPath>
<clipPath id="c2_9"><path d="M551,734.7V640H687.7v94.7Z"/></clipPath>
<clipPath id="c3_9"><path d="M711.4,733.9V667.5H878.7v66.4Z"/></clipPath>
<clipPath id="c4_9"><path d="M343.4,205.4V176.8H533.6v28.6Z"/></clipPath>
<clipPath id="c5_9"><path d="M561.2,203.1v-24H667.8v24Z"/></clipPath>
<clipPath id="c6_9"><path d="M282.8,418.9V390.3H419.1v28.6Z"/></clipPath>
<clipPath id="c7_9"><path d="M636.4,419.8V391.2H844.9v28.6Z"/></clipPath>
<clipPath id="c8_9"><path d="M110.8,779.5V750.9H299.9v28.6Z"/></clipPath>
<clipPath id="c9_9"><path d="M109.2,310.1V279.5H307.8v30.6Z"/></clipPath>
</defs>
<image clip-path="url(#c0_9)" preserveAspectRatio="none" x="55" y="612" width="63" height="123" xlink:href="img/1.png"/>
<image clip-path="url(#c1_9)" preserveAspectRatio="none" x="156" y="569" width="317" height="166" xlink:href="img/2.png"/>
<image clip-path="url(#c2_9)" preserveAspectRatio="none" x="551" y="640" width="137" height="95" xlink:href="img/3.png"/>
<image clip-path="url(#c3_9)" preserveAspectRatio="none" x="711" y="667" width="168" height="67" xlink:href="img/4.png"/>
<image clip-path="url(#c4_9)" preserveAspectRatio="none" x="343" y="177" width="191" height="28" xlink:href="img/5.png"/>
<image clip-path="url(#c5_9)" preserveAspectRatio="none" x="561" y="179" width="107" height="24" xlink:href="img/6.png"/>
<image clip-path="url(#c6_9)" preserveAspectRatio="none" x="283" y="390" width="136" height="29" xlink:href="img/7.png"/>
<image clip-path="url(#c7_9)" preserveAspectRatio="none" x="636" y="391" width="209" height="29" xlink:href="img/8.png"/>
<image clip-path="url(#c8_9)" preserveAspectRatio="none" x="111" y="751" width="189" height="29" xlink:href="img/9.png"/>
<image clip-path="url(#c9_9)" preserveAspectRatio="none" x="109" y="280" width="199" height="30" xlink:href="img/10.png"/>
</svg>