<?xml version="1.0" encoding="UTF-8" standalone="no"?>
<!DOCTYPE svg PUBLIC "-//W3C//DTD SVG 1.1//EN"
"http://www.w3.org/Graphics/SVG/1.1/DTD/svg11.dtd">
<svg viewBox="0 0 935 1210" version="1.1" xmlns="http://www.w3.org/2000/svg" xmlns:xlink="http://www.w3.org/1999/xlink">
<defs>
<clipPath id="c0_123"><path d="M383.6,923.9V689.6H551.9V923.9Z"/></clipPath>
<clipPath id="c1_123"><path d="M143.7,327.7V299.1h36.6v28.6Z"/></clipPath>
<clipPath id="c2_123"><path d="M802.8,309.6V280.9h36.6v28.7Z"/></clipPath>
<clipPath id="c3_123"><path d="M204.3,393.5V367.1h34.4v26.4Z"/></clipPath>
<clipPath id="c4_123"><path d="M196.4,550.5V430.6h68.9V550.5Z"/></clipPath>
<clipPath id="c5_123"><path d="M442.5,551.6V434.7h68.3V551.6Z"/></clipPath>
<clipPath id="c6_123"><path d="M393,1059.7v-22.2H547.3v22.2Z"/></clipPath>
</defs>
<image clip-path="url(#c0_123)" preserveAspectRatio="none" x="384" y="690" width="168" height="234" xlink:href="img/1.jpg"/>
<image clip-path="url(#c1_123)" preserveAspectRatio="none" x="144" y="299" width="36" height="29" xlink:href="img/2.png"/>
<image clip-path="url(#c2_123)" preserveAspectRatio="none" x="803" y="281" width="36" height="29" xlink:href="img/3.png"/>
<image clip-path="url(#c3_123)" preserveAspectRatio="none" x="204" y="367" width="35" height="26" xlink:href="img/4.png"/>
<image clip-path="url(#c4_123)" preserveAspectRatio="none" x="196" y="431" width="69" height="120" xlink:href="img/5.png"/>
<image clip-path="url(#c5_123)" preserveAspectRatio="none" x="443" y="435" width="68" height="117" xlink:href="img/6.png"/>
<image clip-path="url(#c6_123)" preserveAspectRatio="none" x="393" y="1038" width="154" height="22" xlink:href="img/7.png"/>
</svg>