<?xml version="1.0" encoding="UTF-8" standalone="no"?>
<!DOCTYPE svg PUBLIC "-//W3C//DTD SVG 1.1//EN"
"http://www.w3.org/Graphics/SVG/1.1/DTD/svg11.dtd">
<svg viewBox="0 0 935 1210" version="1.1" xmlns="http://www.w3.org/2000/svg" xmlns:xlink="http://www.w3.org/1999/xlink">
<defs>
<clipPath id="c0_118"><path d="M55,337V56.7H477V337Z"/></clipPath>
<clipPath id="c1_118"><path d="M346.6,384.5V360.9h23.7v23.6Z"/></clipPath>
<clipPath id="c2_118"><path d="M463,383.9V360.2h23.7v23.7Z"/></clipPath>
<clipPath id="c3_118"><path d="M154.6,480.9V457.2h23.7v23.7Z"/></clipPath>
<clipPath id="c4_118"><path d="M764.7,620V598h38.5v22Z"/></clipPath>
<clipPath id="c5_118"><path d="M55,744.3V630.7H310.7V744.3Z"/></clipPath>
<style type="text/css"><![CDATA[
.g0_118{
}
]]></style>
</defs>
<path d="M55,838.6H367.8v-.4H55v.4Z" class="g0_118"/>
<image clip-path="url(#c0_118)" preserveAspectRatio="none" x="55" y="57" width="422" height="280" xlink:href="img/1.png"/>
<image clip-path="url(#c1_118)" preserveAspectRatio="none" x="347" y="361" width="23" height="24" xlink:href="img/2.png"/>
<image clip-path="url(#c2_118)" preserveAspectRatio="none" x="463" y="360" width="24" height="24" xlink:href="img/3.png"/>
<image clip-path="url(#c3_118)" preserveAspectRatio="none" x="155" y="457" width="23" height="24" xlink:href="img/4.png"/>
<image clip-path="url(#c4_118)" preserveAspectRatio="none" x="765" y="598" width="38" height="22" xlink:href="img/5.png"/>
<image clip-path="url(#c5_118)" preserveAspectRatio="none" x="55" y="631" width="256" height="113" xlink:href="img/6.png"/>
</svg>