<?xml version="1.0" encoding="UTF-8" standalone="no"?>
<!DOCTYPE svg PUBLIC "-//W3C//DTD SVG 1.1//EN"
"http://www.w3.org/Graphics/SVG/1.1/DTD/svg11.dtd">
<svg viewBox="0 0 935 1210" version="1.1" xmlns="http://www.w3.org/2000/svg" xmlns:xlink="http://www.w3.org/1999/xlink">
<defs>
<clipPath id="c0_79"><path d="M652,231V210.4H831.5V231Z"/></clipPath>
<clipPath id="c1_79"><path d="M127.7,933.6V780.8h55V933.6Z"/></clipPath>
<clipPath id="c2_79"><path d="M261,884.7v-55H664.7v55Z"/></clipPath>
<clipPath id="c3_79"><path d="M743,933.7V780.9h55.8V933.7Z"/></clipPath>
<clipPath id="c4_79"><path d="M0,1210V0H935V1210Z"/></clipPath>
<style type="text/css"><![CDATA[
.g0_79{
fill: none;
stroke: #F07C03;
stroke-width: 1.145;
stroke-linecap: butt;
stroke-linejoin: miter;
stroke-miterlimit: 8;
}
]]></style>
</defs>
<image clip-path="url(#c0_79)" preserveAspectRatio="none" x="652" y="210" width="179" height="21" xlink:href="img/1.png"/>
<image clip-path="url(#c1_79)" preserveAspectRatio="none" x="128" y="781" width="55" height="153" xlink:href="img/2.png"/>
<image clip-path="url(#c2_79)" preserveAspectRatio="none" x="261" y="830" width="404" height="55" xlink:href="img/3.png"/>
<image clip-path="url(#c3_79)" preserveAspectRatio="none" x="743" y="781" width="56" height="153" xlink:href="img/4.png"/>
<image clip-path="url(#c4_79)" preserveAspectRatio="none" x="199" y="845" width="46" height="30" xlink:href="img/5.png"/>
<image x="209" y="854" width="25" height="6" xlink:href="shade/1.png"/>
<path d="M209.9,855.9h21.2v-1.3l2.7,2.7l-2.7,2.7v-1.4H209.9Z" class="g0_79"/>
<image clip-path="url(#c4_79)" preserveAspectRatio="none" x="681" y="845" width="46" height="30" xlink:href="img/6.png"/>
<image x="691" y="854" width="25" height="6" xlink:href="shade/2.png"/>
<path d="M691.9,855.9h21.2v-1.3l2.7,2.7l-2.7,2.7v-1.4H691.9Z" class="g0_79"/>
</svg>